<?xml version="1.0" encoding="UTF-8"?>
<svg id="_레이어_1" data-name="레이어 1" xmlns="http://www.w3.org/2000/svg" xmlns:xlink="http://www.w3.org/1999/xlink" viewBox="0 0 595.28 841.89">
  <defs>
    <style>
      .cls-1 {
        stroke: #ccc;
      }

      .cls-1, .cls-2 {
        stroke-width: .24px;
      }

      .cls-1, .cls-2, .cls-3, .cls-4, .cls-5, .cls-6, .cls-7 {
        stroke-miterlimit: 10;
      }

      .cls-1, .cls-2, .cls-3, .cls-8, .cls-5, .cls-6, .cls-7 {
        fill: none;
      }

      .cls-2 {
        stroke: #231815;
      }

      .cls-3 {
        stroke-dasharray: 0 0 1.94 1.94;
      }

      .cls-3, .cls-5 {
        stroke: #fff;
        stroke-linecap: round;
      }

      .cls-3, .cls-5, .cls-6 {
        stroke-width: .49px;
      }

      .cls-9 {
        letter-spacing: -.04em;
      }

      .cls-10 {
        font-size: 7.2px;
      }

      .cls-10, .cls-11, .cls-12, .cls-13 {
        font-family: GothicA1-Regular, 'Gothic A1';
      }

      .cls-10, .cls-4, .cls-14, .cls-15 {
        fill: #fff;
      }

      .cls-11 {
        font-size: 8.74px;
      }

      .cls-11, .cls-12 {
        fill: #231815;
      }

      .cls-16 {
        letter-spacing: -.02em;
      }

      .cls-4 {
        stroke: #040000;
        stroke-width: .28px;
      }

      .cls-4, .cls-17 {
        font-family: Pretendard-SemiBold-KSCpc-EUC-H, Pretendard;
        font-size: 17.96px;
        font-weight: 600;
      }

      .cls-18 {
        font-family: GothicA1-Medium, 'Gothic A1';
        font-weight: 500;
      }

      .cls-18, .cls-13 {
        fill: #24a5de;
        font-size: 13.2px;
      }

      .cls-8, .cls-19, .cls-15, .cls-20 {
        stroke-width: 0px;
      }

      .cls-12 {
        font-size: 8.4px;
      }

      .cls-21 {
        clip-path: url(#clippath-1);
      }

      .cls-22 {
        letter-spacing: 0em;
      }

      .cls-23 {
        letter-spacing: 0em;
      }

      .cls-6 {
        stroke: #24a5de;
      }

      .cls-17 {
        fill: #d3d3d3;
      }

      .cls-24 {
        clip-path: url(#clippath);
      }

      .cls-19 {
        fill: #898989;
      }

      .cls-25 {
        letter-spacing: 0em;
      }

      .cls-14 {
        font-family: Pretendard-ExtraBold-KSCpc-EUC-H, Pretendard;
        font-size: 5.81px;
        font-weight: 700;
      }

      .cls-26 {
        letter-spacing: -.02em;
      }

      .cls-27 {
        letter-spacing: 0em;
      }

      .cls-20 {
        fill: #003894;
      }

      .cls-28 {
        letter-spacing: 0em;
      }

      .cls-7 {
        stroke: #bfc0bf;
        stroke-width: .15px;
      }
    </style>
    <clipPath id="clippath">
      <rect class="cls-8" x="35.12" y="428.04" width="175.32" height="115.53"/>
    </clipPath>
    <clipPath id="clippath-1">
      <rect class="cls-8" x="36.01" y="399.44" width="173.1" height="173.1"/>
    </clipPath>
  </defs>
  <g>
    <line class="cls-5" x1="330.75" y1="320.58" x2="331.72" y2="320.58"/>
    <line class="cls-3" x1="333.66" y1="320.58" x2="355.98" y2="320.58"/>
    <line class="cls-5" x1="356.95" y1="320.58" x2="357.92" y2="320.58"/>
  </g>
  <g class="cls-24">
    <g>
      <rect class="cls-7" x="36.01" y="399.44" width="173.1" height="173.1"/>
      <g class="cls-21">
        <g>
          <line class="cls-7" x1="42" y1="387.9" x2="42" y2="584.08"/>
          <line class="cls-7" x1="47.77" y1="387.9" x2="47.77" y2="584.08"/>
          <line class="cls-7" x1="53.54" y1="387.9" x2="53.54" y2="584.08"/>
          <line class="cls-7" x1="59.31" y1="387.9" x2="59.31" y2="584.08"/>
          <line class="cls-7" x1="65.08" y1="387.9" x2="65.08" y2="584.08"/>
          <line class="cls-7" x1="70.85" y1="387.9" x2="70.85" y2="584.08"/>
          <line class="cls-7" x1="76.62" y1="387.9" x2="76.62" y2="584.08"/>
          <line class="cls-7" x1="82.39" y1="387.9" x2="82.39" y2="584.08"/>
          <line class="cls-7" x1="88.16" y1="387.9" x2="88.16" y2="584.08"/>
          <line class="cls-7" x1="93.93" y1="387.9" x2="93.93" y2="584.08"/>
          <line class="cls-7" x1="99.7" y1="387.9" x2="99.7" y2="584.08"/>
          <line class="cls-7" x1="105.47" y1="387.9" x2="105.47" y2="584.08"/>
          <line class="cls-7" x1="111.24" y1="387.9" x2="111.24" y2="584.08"/>
          <line class="cls-7" x1="117.01" y1="387.9" x2="117.01" y2="584.08"/>
          <line class="cls-7" x1="122.78" y1="387.9" x2="122.78" y2="584.08"/>
          <line class="cls-7" x1="128.55" y1="387.9" x2="128.55" y2="584.08"/>
          <line class="cls-7" x1="134.32" y1="387.9" x2="134.32" y2="584.08"/>
          <line class="cls-7" x1="140.09" y1="387.9" x2="140.09" y2="584.08"/>
          <line class="cls-7" x1="145.86" y1="387.9" x2="145.86" y2="584.08"/>
          <line class="cls-7" x1="151.63" y1="387.9" x2="151.63" y2="584.08"/>
          <line class="cls-7" x1="157.4" y1="387.9" x2="157.4" y2="584.08"/>
          <line class="cls-7" x1="163.17" y1="387.9" x2="163.17" y2="584.08"/>
          <line class="cls-7" x1="168.94" y1="387.9" x2="168.94" y2="584.08"/>
          <line class="cls-7" x1="174.71" y1="387.9" x2="174.71" y2="584.08"/>
          <line class="cls-7" x1="180.48" y1="387.9" x2="180.48" y2="584.08"/>
          <line class="cls-7" x1="186.25" y1="387.9" x2="186.25" y2="584.08"/>
          <line class="cls-7" x1="192.02" y1="387.9" x2="192.02" y2="584.08"/>
          <line class="cls-7" x1="197.79" y1="387.9" x2="197.79" y2="584.08"/>
          <line class="cls-7" x1="203.12" y1="387.9" x2="203.12" y2="584.08"/>
        </g>
        <g>
          <line class="cls-7" x1="24.47" y1="566.55" x2="220.65" y2="566.55"/>
          <line class="cls-7" x1="24.47" y1="560.78" x2="220.65" y2="560.78"/>
          <line class="cls-7" x1="24.47" y1="555.01" x2="220.65" y2="555.01"/>
          <line class="cls-7" x1="24.47" y1="549.24" x2="220.65" y2="549.24"/>
          <line class="cls-7" x1="24.47" y1="543.47" x2="220.65" y2="543.47"/>
          <line class="cls-7" x1="24.47" y1="537.7" x2="220.65" y2="537.7"/>
          <line class="cls-7" x1="24.47" y1="531.93" x2="220.65" y2="531.93"/>
          <line class="cls-7" x1="24.47" y1="526.16" x2="220.65" y2="526.16"/>
          <line class="cls-7" x1="24.47" y1="520.39" x2="220.65" y2="520.39"/>
          <line class="cls-7" x1="24.47" y1="514.62" x2="220.65" y2="514.62"/>
          <line class="cls-7" x1="24.47" y1="508.85" x2="220.65" y2="508.85"/>
          <line class="cls-7" x1="24.47" y1="503.08" x2="220.65" y2="503.08"/>
          <line class="cls-7" x1="24.47" y1="497.31" x2="220.65" y2="497.31"/>
          <line class="cls-7" x1="24.47" y1="491.54" x2="220.65" y2="491.54"/>
          <line class="cls-7" x1="24.47" y1="485.77" x2="220.65" y2="485.77"/>
          <line class="cls-7" x1="24.47" y1="480" x2="220.65" y2="480"/>
          <line class="cls-7" x1="24.47" y1="474.23" x2="220.65" y2="474.23"/>
          <line class="cls-7" x1="24.47" y1="468.46" x2="220.65" y2="468.46"/>
          <line class="cls-7" x1="24.47" y1="462.69" x2="220.65" y2="462.69"/>
          <line class="cls-7" x1="24.47" y1="456.92" x2="220.65" y2="456.92"/>
          <line class="cls-7" x1="24.47" y1="451.15" x2="220.65" y2="451.15"/>
          <line class="cls-7" x1="24.47" y1="445.38" x2="220.65" y2="445.38"/>
          <line class="cls-7" x1="24.47" y1="439.61" x2="220.65" y2="439.61"/>
          <line class="cls-7" x1="24.47" y1="433.84" x2="220.65" y2="433.84"/>
          <line class="cls-7" x1="24.47" y1="428.07" x2="220.65" y2="428.07"/>
          <line class="cls-7" x1="24.47" y1="422.3" x2="220.65" y2="422.3"/>
          <line class="cls-7" x1="24.47" y1="416.53" x2="220.65" y2="416.53"/>
          <line class="cls-7" x1="24.47" y1="410.76" x2="220.65" y2="410.76"/>
          <line class="cls-7" x1="24.47" y1="405.43" x2="220.65" y2="405.43"/>
        </g>
      </g>
    </g>
  </g>
  <g>
    <g>
      <path class="cls-20" d="M99.16,488.81l5.86-8.97h5.5c-2.63-8.9-10.85-15.39-20.6-15.39-11.86,0-21.48,9.62-21.48,21.48s9.62,21.48,21.48,21.48c6.52,0,12.35-2.91,16.29-7.49h-1.5l-5.55-11.11ZM92.72,474.98c-.84-.2-1.71-.3-2.58-.3-6.2,0-11.25,5.05-11.25,11.25,0,3.82,1.91,7.35,5.12,9.43l-1.05,1.61c-3.75-2.44-5.99-6.57-5.99-11.04,0-7.26,5.9-13.16,13.16-13.16,1.02,0,2.04.12,3.02.35l-.44,1.86ZM90.14,468.58c-9.57,0-17.35,7.78-17.35,17.35,0,5.89,2.95,11.33,7.9,14.55l-1.05,1.61c-5.49-3.57-8.77-9.61-8.77-16.16,0-10.62,8.64-19.27,19.27-19.27,1.49,0,2.98.17,4.42.51,3.12.73,6.04,2.26,8.44,4.41l-1.28,1.43c-2.16-1.94-4.79-3.31-7.6-3.97-1.3-.3-2.64-.46-3.98-.46ZM99.1,499.92h-4.59v-20.09h4.59v20.09Z"/>
      <path class="cls-20" d="M108.6,496.54c1.78-3.13,2.81-6.75,2.81-10.61,0-2.1-.31-4.12-.86-6.03l-5.81,8.83,3.86,7.82Z"/>
      <path class="cls-15" d="M76.98,485.93c0,4.47,2.24,8.6,5.99,11.04l1.05-1.61c-3.21-2.09-5.12-5.61-5.12-9.43,0-6.2,5.05-11.25,11.25-11.25.87,0,1.74.1,2.58.3l.44-1.86c-.98-.23-2-.35-3.02-.35-7.26,0-13.16,5.91-13.16,13.16Z"/>
      <path class="cls-15" d="M103,471.58c-2.4-2.15-5.32-3.68-8.44-4.41-1.44-.34-2.93-.51-4.42-.51-10.62,0-19.27,8.64-19.27,19.27,0,6.54,3.28,12.58,8.77,16.16l1.05-1.61c-4.95-3.22-7.9-8.66-7.9-14.55,0-9.57,7.78-17.35,17.35-17.35,1.35,0,2.68.15,3.98.46,2.81.66,5.44,2.03,7.6,3.97l1.28-1.43Z"/>
      <path class="cls-20" d="M89.92,509.77c-4.63,0-9.13-1.33-12.99-3.85-6.8-4.42-10.85-11.9-10.85-20,0-13.15,10.7-23.84,23.84-23.84v-1.92c-14.2,0-25.76,11.56-25.76,25.76,0,8.75,4.38,16.82,11.72,21.6,4.18,2.72,9.03,4.16,14.04,4.16,7.4,0,14.45-3.19,19.34-8.74l-1.44-1.27c-4.53,5.14-11.05,8.09-17.9,8.09Z"/>
      <rect class="cls-15" x="94.51" y="479.84" width="4.59" height="20.09"/>
      <path class="cls-15" d="M110.58,479.84h-.05s.01.04.02.06l.04-.06Z"/>
      <path class="cls-15" d="M104.74,488.72l5.81-8.83s-.01-.04-.02-.06h-5.5l-5.86,8.97,5.55,11.11h1.5c.9-1.05,1.7-2.18,2.38-3.38l-3.86-7.82Z"/>
    </g>
    <g>
      <polygon class="cls-20" points="181.56 499.91 176.58 493.66 181.48 487.52 175.68 487.52 173.68 490.03 171.68 487.52 165.89 487.52 170.78 493.66 165.8 499.91 171.6 499.91 173.68 497.3 175.77 499.91 181.56 499.91"/>
      <path class="cls-20" d="M146.33,499.9h-5.63c-5.53,0-10.03-4.5-10.03-10.03s4.5-10.03,10.03-10.03h5.63v4.93h-5.63c-2.82,0-5.11,2.29-5.11,5.11s2.29,5.11,5.11,5.11h5.63v4.93Z"/>
      <path class="cls-20" d="M148.27,491.46v.16c0,4.57,3.8,8.29,8.47,8.29h7.2v-4.71h-7.2c-1.99,0-3.62-1.48-3.75-3.34h9.92v-4.35h-9.93v-2.98h10.96v-4.71h-15.67v11.63Z"/>
      <path class="cls-20" d="M113.04,491.46v.16c0,4.57,3.8,8.29,8.47,8.29h7.2v-4.71h-7.2c-1.99,0-3.62-1.48-3.75-3.34h9.92v-4.35h-9.93v-2.98h10.96v-4.71h-15.67v11.63Z"/>
    </g>
  </g>
  <g>
    <circle class="cls-19" cx="89.2" cy="470.94" r="4.09"/>
    <text class="cls-14" transform="translate(87.41 472.76)"><tspan x="0" y="0">2</tspan></text>
  </g>
  <g>
    <circle class="cls-19" cx="89.2" cy="487.15" r="4.09"/>
    <text class="cls-14" transform="translate(87.81 488.98)"><tspan x="0" y="0">1</tspan></text>
  </g>
  <g>
    <circle class="cls-19" cx="89.2" cy="511.07" r="4.09"/>
    <text class="cls-14" transform="translate(87.32 512.89)"><tspan x="0" y="0">3</tspan></text>
  </g>
  <text class="cls-12" transform="translate(242.76 435.41)"><tspan x="0" y="0">원</tspan></text>
  <g>
    <circle class="cls-19" cx="234.46" cy="432.53" r="4.75"/>
    <text class="cls-10" transform="translate(232.46 435.24)"><tspan x="0" y="0">1</tspan></text>
  </g>
  <text class="cls-12" transform="translate(243.03 487.53)"><tspan x="0" y="0">백색 라인(in)</tspan></text>
  <circle class="cls-19" cx="234.46" cy="484.65" r="4.75"/>
  <text class="cls-10" transform="translate(232.46 487.37)"><tspan x="0" y="0">2</tspan></text>
  <text class="cls-12" transform="translate(243.65 541.25)"><tspan x="0" y="0">청색 라인(out)</tspan></text>
  <circle class="cls-19" cx="234.46" cy="538.37" r="4.75"/>
  <text class="cls-10" transform="translate(232.46 541.09)"><tspan x="0" y="0">3</tspan></text>
  <text class="cls-12" transform="translate(242.41 450.77)"><tspan x="0" y="0">대한민국(</tspan><tspan class="cls-25" x="36.02" y="0">K</tspan><tspan class="cls-22" x="41.32" y="0">orea)을 상징, 그 가운데 대한민국 산업현장 전반의 관리체계 구축에 앞장서는</tspan><tspan x="0" y="12.62">기관임을 함축적 의미로 표현함</tspan></text>
  <text class="cls-12" transform="translate(243.03 503.22)"><tspan x="0" y="0">점진적인 방폭산업·기술의 향상 / 방폭전문인력 양성으로 안전의식 향상 및 경제적 발전에</tspan><tspan x="0" y="12.62">기여하고자 함</tspan></text>
  <text class="cls-12" transform="translate(243.91 555.92)"><tspan x="0" y="0">방폭산업의 발전으로 나아가 글로벌 경쟁력을 확보하고자 하는 목적을 가짐</tspan></text>
  <text class="cls-13" transform="translate(272.26 100.2)"><tspan x="0" y="0">심볼마크</tspan></text>
  <text class="cls-11" transform="translate(193.19 213.15)"><tspan x="0" y="0">심볼마크</tspan></text>
  <polyline class="cls-2" points="279.01 194.59 279.01 199.65 141.4 199.65 141.4 194.59"/>
  <text class="cls-11" transform="translate(354.55 213.15)"><tspan x="0" y="0">로고타입</tspan></text>
  <polyline class="cls-2" points="453.71 194.59 453.71 199.65 289.2 199.65 289.2 194.59"/>
  <line class="cls-6" x1="290.36" y1="78.36" x2="304.92" y2="78.36"/>
  <g>
    <g>
      <g>
        <polygon class="cls-20" points="273.46 176.02 268.56 169.87 273.38 163.82 267.68 163.82 265.71 166.29 263.74 163.82 258.04 163.82 262.86 169.87 257.95 176.02 263.66 176.02 265.71 173.45 267.76 176.02 273.46 176.02"/>
        <path class="cls-20" d="M238.78,176h-5.55c-5.45,0-9.88-4.43-9.88-9.88s4.43-9.88,9.88-9.88h5.55v4.85h-5.55c-2.77,0-5.03,2.26-5.03,5.03s2.26,5.03,5.03,5.03h5.55v4.85Z"/>
        <path class="cls-20" d="M240.7,167.7v.16c0,4.5,3.74,8.16,8.34,8.16h7.09v-4.63h-7.09c-1.96,0-3.56-1.45-3.69-3.29h9.76v-4.28h-9.77v-2.93h10.79v-4.63h-15.43v11.45Z"/>
        <path class="cls-20" d="M206.01,167.7v.16c0,4.5,3.74,8.16,8.34,8.16h7.09v-4.63h-7.09c-1.96,0-3.56-1.45-3.69-3.29h9.76v-4.28h-9.77v-2.93h10.79v-4.63h-15.43v11.45Z"/>
      </g>
      <g>
        <path class="cls-20" d="M182.53,187.63c-4.93,0-9.71-1.42-13.83-4.09-7.23-4.71-11.55-12.66-11.55-21.28,0-13.99,11.38-25.38,25.38-25.38v1.89c-12.95,0-23.49,10.54-23.49,23.49,0,7.98,4,15.34,10.69,19.7,3.81,2.48,8.23,3.79,12.8,3.79,6.75,0,13.17-2.91,17.64-7.97l1.42,1.25c-4.82,5.47-11.76,8.61-19.05,8.61Z"/>
        <g>
          <path class="cls-20" d="M202.83,156.25l-5.73,8.75,3.92,7.54c1.7-3.05,2.67-6.56,2.67-10.3,0-2.08-.31-4.09-.87-5.99Z"/>
          <path class="cls-20" d="M191.62,165.09l5.75-8.84h5.47c-2.59-8.77-10.69-15.16-20.3-15.16-11.69,0-21.17,9.48-21.17,21.17s9.48,21.17,21.17,21.17c6.42,0,12.17-2.86,16.05-7.38h-1.22l-5.75-10.95ZM185.29,151.46c-.83-.19-1.68-.29-2.54-.29-6.11,0-11.08,4.97-11.08,11.08,0,3.76,1.89,7.24,5.04,9.29l-1.03,1.58c-3.7-2.41-5.9-6.47-5.9-10.88,0-7.15,5.82-12.97,12.97-12.97,1,0,2.01.12,2.97.34l-.43,1.84ZM182.75,145.15c-9.43,0-17.09,7.67-17.09,17.09,0,5.81,2.91,11.17,7.78,14.34l-1.03,1.58c-5.41-3.52-8.64-9.47-8.64-15.92,0-10.47,8.51-18.98,18.98-18.98,1.47,0,2.94.17,4.35.5,3.08.72,5.95,2.22,8.31,4.34l-1.26,1.4c-2.13-1.91-4.72-3.26-7.49-3.91-1.28-.3-2.6-.45-3.92-.45ZM191.58,176.04h-4.53v-19.79h4.53v19.79Z"/>
        </g>
      </g>
    </g>
    <g>
      <g>
        <path class="cls-20" d="M314,158.23v1.83h-11.86v-1.83h4.83v-2.25h2.21v2.25h4.83ZM313.11,165.4c0,2.47-2.21,3.82-5,3.82s-5.02-1.35-5.02-3.82v-.33c0-2.49,2.21-3.8,5.02-3.8s5,1.31,5,3.8v.33ZM305.22,165.35c0,1.27,1.25,2.03,2.88,2.03s2.88-.76,2.88-2.03v-.24c0-1.25-1.27-2.01-2.88-2.01s-2.88.76-2.88,2.01v.24ZM307.51,170.88v3.63h11.86v1.99h-14.05v-5.61h2.18ZM318.33,162.14h3.15v1.99h-3.15v7.47h-2.18v-15.38h2.18v5.92Z"/>
        <path class="cls-20" d="M341.2,166.23h-8.43v2.91h6.12v7.58h-2.18v-5.66h-12.21v-1.92h6.12v-2.91h-8.45v-1.92h13.57c.35-2.12.57-4.26.57-5.46h-11.8v-1.97h13.96v1.33c0,1.75-.2,3.95-.55,6.1h3.3v1.92Z"/>
        <path class="cls-20" d="M352.43,157.1v9.39h-9.85v-9.39h2.1v2.77h5.66v-2.77h2.1ZM344.68,164.59h5.66v-2.8h-5.66v2.8ZM354.11,168.46c2.93,0,4.81,1.7,4.81,4.13s-1.88,4.13-4.81,4.13h-4.28c-2.93,0-4.81-1.7-4.81-4.13s1.88-4.13,4.81-4.13h4.28ZM353.76,174.75c1.99,0,2.97-.9,2.97-2.18s-.98-2.16-2.97-2.16h-3.58c-1.99,0-2.97.9-2.97,2.16s.98,2.18,2.97,2.18h3.58ZM358.44,160.46h3.15v1.99h-3.15v4.94h-2.18v-11.16h2.18v4.24Z"/>
        <path class="cls-20" d="M372.88,166.56h8.43v1.88h-19.05v-1.88h8.45v-2.01h-6.23v-1.86h3.04v-4.19h-3.04v-1.83h14.59v1.83h-3.01v4.19h3.01v1.86h-6.2v2.01ZM364.6,172.34v-1.94h14.4v6.31h-2.18v-4.37h-12.21ZM369.65,158.49v4.19h4.3v-4.19h-4.3Z"/>
        <path class="cls-20" d="M394.2,157.97v1.77h-11.32v-1.77h4.54v-1.99h2.21v1.99h4.57ZM393.33,164.26c0,2.16-2.08,3.28-4.76,3.28s-4.81-1.11-4.81-3.28v-.26c0-2.18,2.1-3.28,4.81-3.28s4.76,1.09,4.76,3.28v.26ZM385.84,164.22c0,.96,1.18,1.55,2.73,1.55s2.69-.59,2.69-1.55v-.17c0-.94-1.16-1.57-2.69-1.57s-2.73.63-2.73,1.57v.17ZM397.5,170.55v-2.05h2.18v8h-13.41v-8h2.16v2.05h9.07ZM388.44,174.57h9.07v-2.12h-9.07v2.12ZM397.5,156.22h2.18v11.23h-2.18v-1.33h-3.32v-1.73h3.32v-1.99h-3.32v-1.7h3.32v-4.48Z"/>
        <path class="cls-20" d="M410.22,171.86c1.86-.11,3.87-.28,5.64-.5l.24,1.94c-3.1.44-7.08.68-10.05.68h-3.36l-.11-1.99h3.67c.55,0,1.16-.02,1.81-.04v-2.4c-2.29-.31-3.98-1.62-3.98-3.8v-.33c0-2.49,2.23-3.84,5.07-3.84s5.05,1.35,5.05,3.84v.33c0,2.18-1.7,3.5-3.98,3.8v2.32ZM415.11,158.54v1.81h-11.97v-1.81h4.89v-2.29h2.18v2.29h4.89ZM406.2,165.73c0,1.35,1.29,2.14,2.95,2.14s2.91-.79,2.91-2.14v-.28c0-1.33-1.29-2.12-2.91-2.12s-2.95.79-2.95,2.12v.28ZM417.56,156.22h2.18v20.27h-2.18v-20.27Z"/>
      </g>
      <g>
        <path class="cls-20" d="M284.77,158.26c0,.76-.09,1.48-.26,2.17l2.56,3.2-.73.61-2.19-2.74c-.42,1-1.05,1.93-1.92,2.84l-.69-.64c1.56-1.63,2.28-3.28,2.28-5.44v-1.17h.95v1.17ZM290.35,159.94v.88h-1.39v4.73h-.97v-8.99h.97v3.38h1.39Z"/>
        <path class="cls-20" d="M296.09,161.42c-1.08.18-2.4.3-3.66.3h-1.55v-4.68h4.37v.85h-3.42v2.96h.78c1,0,2.26-.1,3.37-.27l.12.83ZM293.06,162.73v1.94h5.26v.88h-6.22v-2.82h.96ZM297.86,158.82h1.4v.87h-1.4v3.6h-.97v-6.73h.97v2.26Z"/>
        <path class="cls-20" d="M288.03,167.5h.96v4.72h-.96v-1.98h-1.85v1.68h-4.46v-4.04h.93v1.17h2.6v-1.17h.93v1.51h1.85v-1.89ZM282.65,171.07h2.6v-1.16h-2.6v1.16ZM288.03,173.71v-1.03h.96v3.81h-5.95v-3.81h.97v1.03h4.02ZM284.01,175.63h4.02v-1.08h-4.02v1.08Z"/>
        <path class="cls-20" d="M290.62,170.35v-.18c0-1.65,1.08-2.42,2.41-2.42s2.4.78,2.4,2.42v.18c0,1.63-1.08,2.41-2.4,2.41s-2.41-.79-2.41-2.41ZM294.47,170.33v-.16c0-1.07-.63-1.58-1.43-1.58s-1.44.51-1.44,1.58v.16c0,1.06.63,1.58,1.44,1.58s1.43-.52,1.43-1.58ZM292.04,176.49v-2.92h.97v2.03h5.36v.88h-6.33ZM297.02,174.24v-6.73h.97v6.73h-.97Z"/>
      </g>
    </g>
  </g>
  <text class="cls-17" transform="translate(73.09 328.14)"><tspan class="cls-9" x="0" y="0">K</tspan><tspan class="cls-23" x="10.97" y="0">o</tspan><tspan class="cls-16" x="21.42" y="0">r</tspan><tspan x="27.88" y="0">ea Engineering Commit</tspan><tspan class="cls-27" x="220.94" y="0">t</tspan><tspan class="cls-23" x="227.31" y="0">ee </tspan><tspan class="cls-26" x="251.95" y="0">f</tspan><tspan x="258.01" y="0">or Explosion p</tspan><tspan class="cls-16" x="374.93" y="0">r</tspan><tspan x="381.39" y="0">o</tspan><tspan class="cls-28" x="391.84" y="0">t</tspan><tspan x="398.21" y="0">ection</tspan></text>
  <text class="cls-4" transform="translate(71.91 326.95)"><tspan class="cls-9" x="0" y="0">K</tspan><tspan class="cls-23" x="10.97" y="0">o</tspan><tspan class="cls-16" x="21.42" y="0">r</tspan><tspan x="27.88" y="0">ea Engineering Commit</tspan><tspan class="cls-28" x="220.94" y="0">t</tspan><tspan x="227.31" y="0">ee </tspan><tspan class="cls-26" x="251.95" y="0">f</tspan><tspan x="258.01" y="0">or Explosion p</tspan><tspan class="cls-16" x="374.93" y="0">r</tspan><tspan x="381.39" y="0">o</tspan><tspan class="cls-28" x="391.84" y="0">t</tspan><tspan x="398.21" y="0">ection</tspan></text>
  <g>
    <text class="cls-18" transform="translate(271.95 668.5)"><tspan x="0" y="0">로고타입</tspan></text>
    <line class="cls-6" x1="290.36" y1="646.66" x2="304.92" y2="646.66"/>
  </g>
  <g>
    <rect class="cls-1" x="30.73" y="695.18" width="533.82" height="80.07"/>
    <g>
      <path class="cls-20" d="M101.41,730.46c0,1.42-.16,2.79-.49,4.09l4.81,6.02-1.37,1.15-4.12-5.16c-.78,1.88-1.97,3.63-3.61,5.34l-1.3-1.2c2.94-3.06,4.29-6.18,4.29-10.23v-2.21h1.79v2.21ZM111.91,733.63v1.66h-2.61v8.9h-1.82v-16.93h1.82v6.37h2.61Z"/>
      <path class="cls-20" d="M122.89,736.41c-2.03.35-4.52.57-6.9.57h-2.92v-8.81h8.23v1.61h-6.44v5.58h1.46c1.88,0,4.25-.18,6.35-.51l.22,1.57ZM117.2,738.89v3.65h9.9v1.66h-11.71v-5.31h1.81ZM126.23,731.52h2.63v1.64h-2.63v6.79h-1.82v-12.68h1.82v4.25Z"/>
      <path class="cls-20" d="M142.66,727.27h1.81v8.88h-1.81v-3.72h-3.48v3.16h-8.39v-7.61h1.75v2.21h4.89v-2.21h1.75v2.85h3.48v-3.56ZM132.54,733.98h4.89v-2.19h-4.89v2.19ZM142.66,738.96v-1.93h1.81v7.17h-11.2v-7.17h1.83v1.93h7.57ZM135.09,742.57h7.57v-2.02h-7.57v2.02Z"/>
      <path class="cls-20" d="M147.92,732.63v-.35c0-3.1,2.03-4.56,4.54-4.56s4.52,1.46,4.52,4.56v.35c0,3.06-2.03,4.54-4.52,4.54s-4.54-1.48-4.54-4.54ZM155.16,732.59v-.29c0-2.01-1.18-2.97-2.7-2.97s-2.72.97-2.72,2.97v.29c0,1.99,1.18,2.97,2.72,2.97s2.7-.99,2.7-2.97ZM150.58,744.19v-5.49h1.82v3.83h10.09v1.66h-11.91ZM159.96,739.94v-12.68h1.82v12.68h-1.82Z"/>
      <path class="cls-20" d="M178.96,728.94v1.53h-9.91v-1.53h4.03v-1.88h1.84v1.88h4.03ZM178.21,734.93c0,2.06-1.84,3.19-4.18,3.19s-4.19-1.13-4.19-3.19v-.27c0-2.08,1.84-3.17,4.19-3.17s4.18,1.09,4.18,3.17v.27ZM171.63,734.89c0,1.06,1.04,1.7,2.41,1.7s2.41-.64,2.41-1.7v-.2c0-1.04-1.06-1.68-2.41-1.68s-2.41.64-2.41,1.68v.2ZM173.54,739.51v3.03h9.91v1.66h-11.73v-4.69h1.82ZM182.57,732.21h2.62v1.66h-2.62v6.24h-1.83v-12.84h1.83v4.94Z"/>
      <path class="cls-20" d="M202.22,735.62h-7.04v2.43h5.11v6.33h-1.82v-4.72h-10.2v-1.61h5.11v-2.43h-7.06v-1.61h11.33c.29-1.77.47-3.56.47-4.56h-9.85v-1.64h11.66v1.11c0,1.46-.16,3.3-.46,5.09h2.75v1.61Z"/>
      <path class="cls-20" d="M212.14,728v7.84h-8.23v-7.84h1.75v2.32h4.73v-2.32h1.75ZM205.66,734.25h4.73v-2.33h-4.73v2.33ZM213.54,737.48c2.45,0,4.01,1.42,4.01,3.45s-1.57,3.45-4.01,3.45h-3.57c-2.44,0-4.01-1.42-4.01-3.45s1.57-3.45,4.01-3.45h3.57ZM213.25,742.74c1.66,0,2.48-.75,2.48-1.82s-.82-1.81-2.48-1.81h-2.99c-1.66,0-2.48.75-2.48,1.81s.82,1.82,2.48,1.82h2.99ZM217.15,730.81h2.63v1.66h-2.63v4.12h-1.82v-9.32h1.82v3.54Z"/>
      <path class="cls-20" d="M229.76,735.89h7.04v1.57h-15.91v-1.57h7.06v-1.68h-5.2v-1.55h2.54v-3.5h-2.54v-1.53h12.18v1.53h-2.52v3.5h2.52v1.55h-5.18v1.68ZM222.84,740.73v-1.62h12.02v5.27h-1.83v-3.65h-10.2ZM227.06,729.16v3.5h3.6v-3.5h-3.6Z"/>
      <path class="cls-20" d="M248.11,728.73v1.48h-9.45v-1.48h3.79v-1.66h1.84v1.66h3.81ZM247.37,733.98c0,1.81-1.73,2.74-3.98,2.74s-4.01-.93-4.01-2.74v-.22c0-1.82,1.75-2.74,4.01-2.74s3.98.91,3.98,2.74v.22ZM241.12,733.94c0,.8.98,1.3,2.28,1.3s2.24-.49,2.24-1.3v-.14c0-.79-.97-1.31-2.24-1.31s-2.28.53-2.28,1.31v.14ZM250.86,739.23v-1.71h1.82v6.68h-11.2v-6.68h1.8v1.71h7.57ZM243.29,742.59h7.57v-1.77h-7.57v1.77ZM250.86,727.27h1.82v9.38h-1.82v-1.11h-2.77v-1.44h2.77v-1.66h-2.77v-1.42h2.77v-3.74Z"/>
      <path class="cls-20" d="M262.02,740.33c1.55-.09,3.23-.24,4.71-.42l.2,1.62c-2.59.36-5.91.57-8.39.57h-2.81l-.09-1.66h3.07c.46,0,.97-.02,1.51-.04v-2.01c-1.92-.25-3.32-1.35-3.32-3.17v-.27c0-2.08,1.86-3.21,4.23-3.21s4.21,1.13,4.21,3.21v.27c0,1.82-1.42,2.92-3.32,3.17v1.93ZM266.11,729.2v1.51h-10v-1.51h4.09v-1.92h1.82v1.92h4.09ZM258.67,735.2c0,1.13,1.08,1.79,2.46,1.79s2.43-.66,2.43-1.79v-.24c0-1.11-1.08-1.77-2.43-1.77s-2.46.66-2.46,1.77v.24ZM268.15,727.27h1.83v16.93h-1.83v-16.93Z"/>
    </g>
    <g>
      <path class="cls-20" d="M369.14,726.77l1.12,1.04c-2.25,2.53-3.27,5.24-3.27,8.06s1.02,5.53,3.27,8.06l-1.12,1.04c-2.42-2.53-3.76-5.6-3.76-9.1s1.34-6.57,3.76-9.1Z"/>
      <path class="cls-20" d="M376.78,729.93c0,1.45-.17,2.84-.5,4.16l4.9,6.13-1.39,1.17-4.2-5.26c-.8,1.91-2.01,3.7-3.68,5.44l-1.32-1.23c2.99-3.12,4.37-6.3,4.37-10.42v-2.25h1.82v2.25ZM387.48,733.16v1.69h-2.66v9.06h-1.86v-17.24h1.86v6.48h2.66Z"/>
      <path class="cls-20" d="M389.06,744.97l-1.12-1.04c2.25-2.53,3.27-5.26,3.27-8.06s-1.02-5.53-3.27-8.06l1.12-1.04c2.42,2.53,3.76,5.6,3.76,9.1s-1.34,6.57-3.76,9.1Z"/>
      <path class="cls-20" d="M404.81,728.39v1.56h-10.09v-1.56h4.11v-1.91h1.88v1.91h4.11ZM404.05,734.48c0,2.1-1.88,3.25-4.25,3.25s-4.27-1.15-4.27-3.25v-.28c0-2.12,1.88-3.23,4.27-3.23s4.25,1.11,4.25,3.23v.28ZM397.34,734.44c0,1.08,1.06,1.73,2.45,1.73s2.45-.65,2.45-1.73v-.2c0-1.06-1.08-1.71-2.45-1.71s-2.45.65-2.45,1.71v.2ZM399.29,739.14v3.08h10.09v1.69h-11.94v-4.77h1.86ZM408.49,731.71h2.67v1.69h-2.67v6.35h-1.86v-13.08h1.86v5.03Z"/>
      <path class="cls-20" d="M428.12,735.19h-7.17v2.47h5.2v6.45h-1.86v-4.81h-10.38v-1.63h5.2v-2.47h-7.19v-1.63h11.53c.3-1.8.48-3.62.48-4.64h-10.03v-1.67h11.87v1.13c0,1.49-.17,3.36-.46,5.18h2.8v1.63Z"/>
      <path class="cls-20" d="M437.85,727.42v7.99h-8.38v-7.99h1.78v2.36h4.81v-2.36h1.78ZM431.26,733.79h4.81v-2.38h-4.81v2.38ZM439.28,737.08c2.49,0,4.09,1.45,4.09,3.51s-1.6,3.51-4.09,3.51h-3.64c-2.49,0-4.09-1.45-4.09-3.51s1.6-3.51,4.09-3.51h3.64ZM438.98,742.43c1.69,0,2.53-.76,2.53-1.86s-.84-1.84-2.53-1.84h-3.05c-1.69,0-2.53.76-2.53,1.84s.84,1.86,2.53,1.86h3.05ZM442.96,730.28h2.67v1.69h-2.67v4.2h-1.86v-9.49h1.86v3.6Z"/>
      <path class="cls-20" d="M455.42,735.46h7.17v1.6h-16.2v-1.6h7.19v-1.71h-5.29v-1.58h2.58v-3.57h-2.58v-1.56h12.41v1.56h-2.56v3.57h2.56v1.58h-5.27v1.71ZM448.38,740.39v-1.65h12.24v5.37h-1.86v-3.71h-10.38ZM452.67,728.61v3.57h3.66v-3.57h-3.66Z"/>
      <path class="cls-20" d="M473.74,728.16v1.5h-9.62v-1.5h3.86v-1.69h1.88v1.69h3.88ZM472.99,733.51c0,1.84-1.76,2.79-4.05,2.79s-4.09-.95-4.09-2.79v-.22c0-1.86,1.78-2.79,4.09-2.79s4.05.93,4.05,2.79v.22ZM466.62,733.48c0,.82,1,1.32,2.32,1.32s2.28-.5,2.28-1.32v-.15c0-.8-.98-1.34-2.28-1.34s-2.32.54-2.32,1.34v.15ZM476.54,738.86v-1.75h1.86v6.8h-11.41v-6.8h1.84v1.75h7.71ZM468.83,742.28h7.71v-1.8h-7.71v1.8ZM476.54,726.68h1.86v9.55h-1.86v-1.13h-2.82v-1.47h2.82v-1.69h-2.82v-1.45h2.82v-3.81Z"/>
      <path class="cls-20" d="M487.54,739.98c1.58-.09,3.29-.24,4.79-.43l.2,1.65c-2.64.37-6.02.58-8.54.58h-2.86l-.09-1.69h3.12c.46,0,.98-.02,1.54-.04v-2.04c-1.95-.26-3.38-1.37-3.38-3.23v-.28c0-2.12,1.89-3.27,4.31-3.27s4.29,1.15,4.29,3.27v.28c0,1.86-1.45,2.97-3.38,3.23v1.97ZM491.7,728.65v1.54h-10.18v-1.54h4.16v-1.95h1.86v1.95h4.16ZM484.12,734.76c0,1.15,1.1,1.82,2.51,1.82s2.47-.67,2.47-1.82v-.24c0-1.13-1.1-1.8-2.47-1.8s-2.51.67-2.51,1.8v.24ZM493.78,726.68h1.86v17.24h-1.86v-17.24Z"/>
    </g>
  </g>
</svg>