<?xml version="1.0" encoding="UTF-8"?>
<svg id="_레이어_1" data-name="레이어 1" xmlns="http://www.w3.org/2000/svg" viewBox="0 0 595.28 841.89">
  <defs>
    <style>
      .cls-1 {
        stroke: #ccc;
        stroke-width: .24px;
      }

      .cls-1, .cls-2 {
        fill: none;
        stroke-miterlimit: 10;
      }

      .cls-3 {
        font-size: 9.6px;
      }

      .cls-3, .cls-4 {
        fill: #231815;
        font-family: GothicA1-Regular, 'Gothic A1';
      }

      .cls-5 {
        letter-spacing: 0em;
      }

      .cls-6 {
        fill: #fff;
        font-family: Pretendard-Regular-KSCpc-EUC-H, Pretendard;
        font-size: 8.88px;
      }

      .cls-7 {
        fill: #24a5de;
        font-size: 13.2px;
      }

      .cls-7, .cls-8, .cls-9 {
        font-family: GothicA1-Medium, 'Gothic A1';
        font-weight: 500;
      }

      .cls-10, .cls-8 {
        fill: #3e3a39;
      }

      .cls-10, .cls-11 {
        stroke-width: 0px;
      }

      .cls-4 {
        font-size: 8.4px;
      }

      .cls-8, .cls-9 {
        font-size: 11.4px;
      }

      .cls-9, .cls-11 {
        fill: #003894;
      }

      .cls-2 {
        stroke: #24a5de;
        stroke-width: .49px;
      }

      .cls-12 {
        letter-spacing: -.11em;
      }
    </style>
  </defs>
  <text class="cls-4" transform="translate(58.73 134.45)"><tspan x="0" y="0">시그니처는 심볼마크와 로고타입을 적절한 비례에 맞추어 조합한 것으로 적용환경과 매체에 따라 조합을 선택하여 사용할 수 있습니다.</tspan><tspan x="63.76" y="13.65">임의로 타이핑하여 사용, 색상 임의 조절, 로고 일부만 사용하는 등의 변형된 로고 사용을 금합니다.</tspan></text>
  <text class="cls-4" transform="translate(281.45 219.27)"><tspan x="0" y="0">좌우조합</tspan></text>
  <text class="cls-4" transform="translate(281.45 422.61)"><tspan x="0" y="0">상하조합</tspan></text>
  <text class="cls-7" transform="translate(271.87 100.2)"><tspan x="0" y="0">시그니처</tspan></text>
  <line class="cls-2" x1="290.28" y1="78.36" x2="304.84" y2="78.36"/>
  <rect class="cls-1" x="30.61" y="244.47" width="257.2" height="144.13"/>
  <rect class="cls-1" x="307.46" y="244.71" width="257.2" height="144.13"/>
  <rect class="cls-1" x="30.61" y="448.35" width="257.2" height="144.13"/>
  <rect class="cls-1" x="307.46" y="448.59" width="257.2" height="144.13"/>
  <g>
    <g>
      <path class="cls-11" d="M164.18,276.46c0,.36-.04.7-.12,1.02l1.2,1.5-.34.29-1.03-1.29c-.2.47-.49.91-.9,1.34l-.32-.3c.73-.77,1.07-1.55,1.07-2.56v-.55h.45v.55ZM166.81,277.26v.42h-.65v2.23h-.46v-4.23h.46v1.59h.65Z"/>
      <path class="cls-11" d="M169.56,277.95c-.51.09-1.13.14-1.72.14h-.73v-2.2h2.06v.4h-1.61v1.4h.36c.47,0,1.06-.05,1.59-.13l.05.39ZM168.13,278.57v.91h2.48v.42h-2.93v-1.33h.45ZM170.39,276.73h.66v.41h-.66v1.7h-.46v-3.17h.46v1.06Z"/>
      <path class="cls-11" d="M174.5,275.67h.45v2.22h-.45v-.93h-.87v.79h-2.1v-1.9h.44v.55h1.22v-.55h.44v.71h.87v-.89ZM171.97,277.34h1.22v-.55h-1.22v.55ZM174.5,278.59v-.48h.45v1.79h-2.8v-1.79h.46v.48h1.89ZM172.61,279.49h1.89v-.51h-1.89v.51Z"/>
      <path class="cls-11" d="M175.81,277.01v-.09c0-.78.51-1.14,1.14-1.14s1.13.36,1.13,1.14v.09c0,.77-.51,1.14-1.13,1.14s-1.14-.37-1.14-1.14ZM177.62,277v-.07c0-.5-.3-.74-.67-.74s-.68.24-.68.74v.07c0,.5.3.74.68.74s.67-.25.67-.74ZM176.48,279.9v-1.37h.46v.96h2.52v.42h-2.98ZM178.82,278.84v-3.17h.46v3.17h-.46Z"/>
      <path class="cls-11" d="M183.57,276.09v.38h-2.48v-.38h1.01v-.47h.46v.47h1.01ZM183.39,277.58c0,.52-.46.8-1.04.8s-1.05-.28-1.05-.8v-.07c0-.52.46-.79,1.05-.79s1.04.27,1.04.79v.07ZM181.74,277.57c0,.26.26.42.6.42s.6-.16.6-.42v-.05c0-.26-.27-.42-.6-.42s-.6.16-.6.42v.05ZM182.22,278.73v.76h2.48v.42h-2.93v-1.17h.46ZM184.48,276.9h.66v.41h-.66v1.56h-.46v-3.21h.46v1.24Z"/>
      <path class="cls-11" d="M189.39,277.76h-1.76v.61h1.28v1.58h-.46v-1.18h-2.55v-.4h1.28v-.61h-1.76v-.4h2.83c.07-.44.12-.89.12-1.14h-2.46v-.41h2.91v.28c0,.36-.04.83-.11,1.27h.69v.4Z"/>
      <path class="cls-11" d="M191.87,275.85v1.96h-2.06v-1.96h.44v.58h1.18v-.58h.44ZM190.25,277.41h1.18v-.58h-1.18v.58ZM192.22,278.22c.61,0,1,.36,1,.86s-.39.86-1,.86h-.89c-.61,0-1-.36-1-.86s.39-.86,1-.86h.89ZM192.15,279.53c.41,0,.62-.19.62-.46s-.21-.45-.62-.45h-.75c-.42,0-.62.19-.62.45s.21.46.62.46h.75ZM193.12,276.55h.66v.41h-.66v1.03h-.46v-2.33h.46v.88Z"/>
      <path class="cls-11" d="M196.27,277.82h1.76v.39h-3.98v-.39h1.76v-.42h-1.3v-.39h.63v-.88h-.63v-.38h3.05v.38h-.63v.88h.63v.39h-1.29v.42ZM194.54,279.03v-.41h3.01v1.32h-.46v-.91h-2.55ZM195.6,276.14v.88h.9v-.88h-.9Z"/>
      <path class="cls-11" d="M200.86,276.03v.37h-2.36v-.37h.95v-.42h.46v.42h.95ZM200.68,277.34c0,.45-.43.68-.99.68s-1-.23-1-.68v-.05c0-.46.44-.68,1-.68s.99.23.99.68v.05ZM199.11,277.34c0,.2.25.32.57.32s.56-.12.56-.32v-.04c0-.2-.24-.33-.56-.33s-.57.13-.57.33v.04ZM201.55,278.66v-.43h.46v1.67h-2.8v-1.67h.45v.43h1.89ZM199.66,279.5h1.89v-.44h-1.89v.44ZM201.55,275.67h.46v2.34h-.46v-.28h-.69v-.36h.69v-.41h-.69v-.36h.69v-.93Z"/>
      <path class="cls-11" d="M204.34,278.93c.39-.02.81-.06,1.18-.1l.05.41c-.65.09-1.48.14-2.1.14h-.7l-.02-.42h.77c.11,0,.24,0,.38,0v-.5c-.48-.06-.83-.34-.83-.79v-.07c0-.52.47-.8,1.06-.8s1.05.28,1.05.8v.07c0,.46-.36.73-.83.79v.48ZM205.36,276.15v.38h-2.5v-.38h1.02v-.48h.46v.48h1.02ZM203.5,277.65c0,.28.27.45.62.45s.61-.16.61-.45v-.06c0-.28-.27-.44-.61-.44s-.62.16-.62.44v.06ZM205.87,275.67h.46v4.23h-.46v-4.23Z"/>
    </g>
    <g>
      <polygon class="cls-11" points="206.28 298.76 202.43 293.93 206.21 289.18 201.73 289.18 200.19 291.12 198.64 289.18 194.16 289.18 197.95 293.93 194.1 298.76 198.58 298.76 200.19 296.74 201.8 298.76 206.28 298.76"/>
      <path class="cls-11" d="M179.04,298.75h-4.36c-4.28,0-7.76-3.48-7.76-7.76s3.48-7.76,7.76-7.76h4.36v3.81h-4.36c-2.18,0-3.95,1.77-3.95,3.95s1.77,3.95,3.95,3.95h4.36v3.81Z"/>
      <path class="cls-11" d="M180.55,292.23v.12c0,3.53,2.94,6.41,6.55,6.41h5.57v-3.64h-5.57c-1.54,0-2.8-1.14-2.9-2.58h7.66v-3.36h-7.67v-2.3h8.47v-3.64h-12.11v8.99Z"/>
      <path class="cls-11" d="M153.45,292.23v.12c0,3.53,2.94,6.41,6.55,6.41h5.57v-3.64h-5.57c-1.54,0-2.8-1.14-2.9-2.58h7.66v-3.36h-7.67v-2.3h8.47v-3.64h-12.11v8.99Z"/>
      <g>
        <g>
          <rect class="cls-11" x="139.55" y="283.22" width="3.56" height="15.55"/>
          <polygon class="cls-11" points="147.47 290.1 151.94 283.22 147.64 283.22 143.15 290.17 147.64 298.77 151.94 298.77 147.47 290.1 147.47 290.1"/>
        </g>
        <g>
          <path class="cls-11" d="M130.61,296.49c-2.9-1.89-4.64-5.09-4.64-8.55,0-5.62,4.57-10.19,10.19-10.19.79,0,1.58.09,2.34.27l-.34,1.44c-.65-.15-1.32-.23-2-.23-4.8,0-8.71,3.91-8.71,8.71,0,2.96,1.48,5.69,3.96,7.3l-.81,1.24Z"/>
          <path class="cls-11" d="M128.03,300.45c-4.25-2.77-6.79-7.44-6.79-12.51,0-8.22,6.69-14.92,14.92-14.92,1.16,0,2.31.13,3.42.39,2.42.57,4.68,1.75,6.53,3.41l-.99,1.1c-1.67-1.5-3.71-2.56-5.88-3.07-1-.24-2.04-.36-3.08-.36-7.41,0-13.43,6.03-13.43,13.43,0,4.56,2.29,8.77,6.11,11.27l-.81,1.24Z"/>
          <path class="cls-11" d="M135.99,307.88c-3.88,0-7.63-1.11-10.87-3.22-5.68-3.7-9.08-9.95-9.08-16.72,0-11,8.95-19.94,19.94-19.94v1.48c-10.18,0-18.46,8.28-18.46,18.46,0,6.27,3.14,12.06,8.4,15.48,2.99,1.95,6.47,2.98,10.06,2.98,5.3,0,10.35-2.28,13.86-6.26l1.11.98c-3.79,4.3-9.24,6.77-14.97,6.77Z"/>
        </g>
      </g>
    </g>
  </g>
  <g>
    <g>
      <path class="cls-11" d="M135.56,362.88c-3.85,0-7.59-1.11-10.8-3.2-5.65-3.68-9.02-9.89-9.02-16.62,0-10.93,8.89-19.82,19.82-19.82v1.47c-10.12,0-18.35,8.23-18.35,18.35,0,6.23,3.12,11.98,8.35,15.39,2.97,1.94,6.43,2.96,10,2.96,5.27,0,10.29-2.27,13.78-6.23l1.11.97c-3.76,4.28-9.19,6.73-14.88,6.73Z"/>
      <g>
        <path class="cls-11" d="M151.41,338.37l-4.47,6.83,3.06,5.89c1.33-2.38,2.09-5.12,2.09-8.04,0-1.63-.24-3.2-.68-4.68Z"/>
        <path class="cls-11" d="M142.65,345.27l4.49-6.9h4.27c-2.02-6.85-8.35-11.85-15.85-11.85-9.13,0-16.53,7.4-16.53,16.53s7.4,16.53,16.53,16.53c5.02,0,9.51-2.24,12.54-5.76h-.96l-4.49-8.55ZM137.71,334.63c-.65-.15-1.31-.23-1.99-.23-4.77,0-8.66,3.88-8.66,8.66,0,2.94,1.47,5.65,3.94,7.26l-.8,1.24c-2.89-1.88-4.61-5.06-4.61-8.5,0-5.59,4.54-10.13,10.13-10.13.78,0,1.57.09,2.32.27l-.34,1.44ZM135.72,329.7c-7.36,0-13.35,5.99-13.35,13.35,0,4.54,2.27,8.72,6.08,11.2l-.8,1.24c-4.23-2.75-6.75-7.4-6.75-12.43,0-8.18,6.65-14.83,14.83-14.83,1.15,0,2.29.13,3.4.39,2.4.56,4.65,1.74,6.49,3.39l-.98,1.1c-1.66-1.49-3.68-2.55-5.85-3.05-1-.23-2.03-.35-3.06-.35ZM142.62,353.82h-3.54v-15.46h3.54v15.46Z"/>
      </g>
    </g>
    <g>
      <path class="cls-11" d="M164.5,331.56c0,.36-.04.7-.12,1.02l1.2,1.5-.34.29-1.03-1.29c-.2.47-.49.91-.9,1.34l-.32-.3c.73-.77,1.07-1.55,1.07-2.56v-.55h.45v.55ZM167.13,332.35v.41h-.65v2.23h-.46v-4.23h.46v1.59h.65Z"/>
      <path class="cls-11" d="M169.87,333.04c-.51.09-1.13.14-1.72.14h-.73v-2.2h2.06v.4h-1.61v1.4h.36c.47,0,1.06-.05,1.59-.13l.05.39ZM168.45,333.66v.91h2.48v.41h-2.93v-1.33h.45ZM170.71,331.82h.66v.41h-.66v1.7h-.46v-3.17h.46v1.06Z"/>
      <path class="cls-11" d="M174.82,330.76h.45v2.22h-.45v-.93h-.87v.79h-2.1v-1.9h.44v.55h1.22v-.55h.44v.71h.87v-.89ZM172.28,332.44h1.22v-.55h-1.22v.55ZM174.82,333.68v-.48h.45v1.79h-2.8v-1.79h.46v.48h1.89ZM172.92,334.59h1.89v-.51h-1.89v.51Z"/>
      <path class="cls-11" d="M176.13,332.1v-.09c0-.78.51-1.14,1.14-1.14s1.13.37,1.13,1.14v.09c0,.77-.51,1.14-1.13,1.14s-1.14-.37-1.14-1.14ZM177.94,332.09v-.07c0-.5-.3-.74-.68-.74s-.68.24-.68.74v.07c0,.5.3.74.68.74s.68-.25.68-.74ZM176.79,334.99v-1.37h.46v.96h2.52v.41h-2.98ZM179.14,333.93v-3.17h.46v3.17h-.46Z"/>
      <path class="cls-11" d="M183.89,331.18v.38h-2.48v-.38h1.01v-.47h.46v.47h1.01ZM183.7,332.67c0,.52-.46.8-1.04.8s-1.05-.28-1.05-.8v-.07c0-.52.46-.79,1.05-.79s1.04.27,1.04.79v.07ZM182.06,332.67c0,.26.26.42.6.42s.6-.16.6-.42v-.05c0-.26-.26-.42-.6-.42s-.6.16-.6.42v.05ZM182.54,333.82v.76h2.48v.41h-2.93v-1.17h.46ZM184.79,332h.66v.42h-.66v1.56h-.46v-3.21h.46v1.24Z"/>
      <path class="cls-11" d="M189.7,332.85h-1.76v.61h1.28v1.58h-.46v-1.18h-2.55v-.4h1.28v-.61h-1.76v-.4h2.83c.07-.44.12-.89.12-1.14h-2.46v-.41h2.91v.28c0,.36-.04.83-.11,1.27h.69v.4Z"/>
      <path class="cls-11" d="M192.18,330.94v1.96h-2.06v-1.96h.44v.58h1.18v-.58h.44ZM190.56,332.51h1.18v-.58h-1.18v.58ZM192.54,333.31c.61,0,1,.36,1,.86s-.39.86-1,.86h-.89c-.61,0-1-.36-1-.86s.39-.86,1-.86h.89ZM192.46,334.63c.41,0,.62-.19.62-.46s-.21-.45-.62-.45h-.75c-.42,0-.62.19-.62.45s.21.46.62.46h.75ZM193.44,331.64h.66v.42h-.66v1.03h-.46v-2.33h.46v.88Z"/>
      <path class="cls-11" d="M196.59,332.92h1.76v.39h-3.98v-.39h1.76v-.42h-1.3v-.39h.63v-.88h-.63v-.38h3.05v.38h-.63v.88h.63v.39h-1.29v.42ZM194.86,334.12v-.41h3.01v1.32h-.46v-.91h-2.55ZM195.91,331.23v.88h.9v-.88h-.9Z"/>
      <path class="cls-11" d="M201.18,331.12v.37h-2.36v-.37h.95v-.41h.46v.41h.95ZM200.99,332.44c0,.45-.43.68-.99.68s-1-.23-1-.68v-.05c0-.46.44-.68,1-.68s.99.23.99.68v.05ZM199.43,332.43c0,.2.25.32.57.32s.56-.12.56-.32v-.04c0-.2-.24-.33-.56-.33s-.57.13-.57.33v.04ZM201.86,333.75v-.43h.46v1.67h-2.8v-1.67h.45v.43h1.89ZM199.97,334.59h1.89v-.44h-1.89v.44ZM201.86,330.76h.46v2.34h-.46v-.28h-.69v-.36h.69v-.42h-.69v-.36h.69v-.93Z"/>
      <path class="cls-11" d="M204.66,334.02c.39-.02.81-.06,1.18-.1l.05.41c-.65.09-1.48.14-2.1.14h-.7l-.02-.41h.77c.11,0,.24,0,.38,0v-.5c-.48-.06-.83-.34-.83-.79v-.07c0-.52.47-.8,1.06-.8s1.05.28,1.05.8v.07c0,.46-.36.73-.83.79v.48ZM205.68,331.24v.38h-2.5v-.38h1.02v-.48h.46v.48h1.02ZM203.82,332.74c0,.28.27.45.62.45s.61-.16.61-.45v-.06c0-.28-.27-.44-.61-.44s-.62.16-.62.44v.06ZM206.19,330.76h.46v4.23h-.46v-4.23Z"/>
    </g>
    <g>
      <polygon class="cls-11" points="206.59 353.85 202.74 349.02 206.53 344.27 202.05 344.27 200.5 346.21 198.96 344.27 194.48 344.27 198.26 349.02 194.41 353.85 198.89 353.85 200.5 351.83 202.11 353.85 206.59 353.85"/>
      <path class="cls-11" d="M179.36,353.84h-4.36c-4.28,0-7.76-3.48-7.76-7.76s3.48-7.76,7.76-7.76h4.36v3.81h-4.36c-2.18,0-3.95,1.77-3.95,3.95s1.77,3.95,3.95,3.95h4.36v3.81Z"/>
      <path class="cls-11" d="M180.86,347.32v.12c0,3.53,2.94,6.41,6.55,6.41h5.57v-3.64h-5.57c-1.54,0-2.8-1.14-2.9-2.58h7.66v-3.36h-7.67v-2.3h8.47v-3.64h-12.11v8.99Z"/>
      <path class="cls-11" d="M153.76,347.32v.12c0,3.53,2.94,6.41,6.55,6.41h5.57v-3.64h-5.57c-1.54,0-2.8-1.14-2.9-2.58h7.66v-3.36h-7.67v-2.3h8.47v-3.64h-12.11v8.99Z"/>
    </g>
  </g>
  <g>
    <g>
      <polygon class="cls-11" points="425.89 296.27 422.9 292.52 425.84 288.84 422.36 288.84 421.17 290.34 419.97 288.84 416.5 288.84 419.43 292.52 416.45 296.27 419.92 296.27 421.17 294.7 422.41 296.27 425.89 296.27"/>
      <path class="cls-11" d="M404.77,296.26h-3.38c-3.32,0-6.01-2.7-6.01-6.01s2.7-6.01,6.01-6.01h3.38v2.95h-3.38c-1.69,0-3.06,1.37-3.06,3.06s1.37,3.06,3.06,3.06h3.38v2.95Z"/>
      <path class="cls-11" d="M405.94,291.21v.1c0,2.74,2.28,4.97,5.07,4.97h4.31v-2.82h-4.31c-1.19,0-2.17-.89-2.25-2h5.94v-2.6h-5.95v-1.79h6.57v-2.82h-9.39v6.97Z"/>
      <path class="cls-11" d="M384.95,291.21v.1c0,2.74,2.28,4.97,5.07,4.97h4.31v-2.82h-4.31c-1.19,0-2.17-.89-2.25-2h5.94v-2.6h-5.95v-1.79h6.57v-2.82h-9.39v6.97Z"/>
      <g>
        <g>
          <rect class="cls-11" x="374.18" y="284.22" width="2.76" height="12.05"/>
          <polygon class="cls-11" points="380.32 289.56 383.79 284.22 380.45 284.22 376.97 289.61 380.45 296.28 383.78 296.28 380.32 289.56 380.32 289.56"/>
        </g>
        <g>
          <path class="cls-11" d="M367.25,294.5c-2.25-1.47-3.59-3.94-3.59-6.62,0-4.36,3.54-7.9,7.9-7.9.61,0,1.22.07,1.81.21l-.26,1.12c-.5-.12-1.03-.18-1.55-.18-3.72,0-6.75,3.03-6.75,6.75,0,2.29,1.15,4.41,3.07,5.66l-.63.96Z"/>
          <path class="cls-11" d="M365.25,297.58c-3.29-2.14-5.26-5.77-5.26-9.7,0-6.38,5.19-11.56,11.56-11.56.9,0,1.79.1,2.65.31,1.87.44,3.62,1.35,5.06,2.65l-.77.86c-1.3-1.16-2.87-1.99-4.56-2.38-.78-.18-1.58-.28-2.39-.28-5.74,0-10.41,4.67-10.41,10.41,0,3.54,1.77,6.8,4.74,8.73l-.63.96Z"/>
          <path class="cls-11" d="M371.42,303.34c-3,0-5.92-.86-8.42-2.49-4.41-2.87-7.04-7.71-7.04-12.96,0-8.52,6.93-15.46,15.46-15.46v1.15c-7.89,0-14.31,6.42-14.31,14.31,0,4.86,2.43,9.35,6.51,12,2.32,1.51,5.01,2.31,7.8,2.31,4.11,0,8.02-1.77,10.74-4.86l.86.76c-2.94,3.33-7.17,5.25-11.6,5.25Z"/>
        </g>
      </g>
    </g>
    <g>
      <g>
        <path class="cls-11" d="M450.57,285.44v1.12h-7.22v-1.12h2.94v-1.37h1.34v1.37h2.94ZM450.03,289.8c0,1.5-1.34,2.33-3.05,2.33s-3.06-.82-3.06-2.33v-.2c0-1.52,1.34-2.31,3.06-2.31s3.05.8,3.05,2.31v.2ZM445.23,289.77c0,.77.76,1.24,1.76,1.24s1.76-.47,1.76-1.24v-.15c0-.76-.77-1.22-1.76-1.22s-1.76.47-1.76,1.22v.15ZM446.62,293.14v2.21h7.22v1.21h-8.55v-3.42h1.33ZM453.21,287.82h1.92v1.21h-1.92v4.55h-1.33v-9.37h1.33v3.61Z"/>
        <path class="cls-11" d="M467.14,290.31h-5.14v1.77h3.73v4.62h-1.33v-3.45h-7.44v-1.17h3.73v-1.77h-5.15v-1.17h8.26c.21-1.29.35-2.59.35-3.33h-7.18v-1.2h8.5v.81c0,1.06-.12,2.41-.33,3.71h2.01v1.17Z"/>
        <path class="cls-11" d="M473.98,284.75v5.72h-6v-5.72h1.28v1.69h3.45v-1.69h1.28ZM469.26,289.31h3.45v-1.7h-3.45v1.7ZM475,291.66c1.78,0,2.93,1.04,2.93,2.51s-1.14,2.51-2.93,2.51h-2.61c-1.78,0-2.93-1.04-2.93-2.51s1.14-2.51,2.93-2.51h2.61ZM474.79,295.5c1.21,0,1.81-.55,1.81-1.33s-.6-1.32-1.81-1.32h-2.18c-1.21,0-1.81.55-1.81,1.32s.6,1.33,1.81,1.33h2.18ZM477.64,286.79h1.92v1.21h-1.92v3.01h-1.33v-6.8h1.33v2.58Z"/>
        <path class="cls-11" d="M486.43,290.51h5.14v1.14h-11.6v-1.14h5.15v-1.22h-3.79v-1.13h1.85v-2.55h-1.85v-1.12h8.89v1.12h-1.84v2.55h1.84v1.13h-3.78v1.22ZM481.39,294.03v-1.18h8.77v3.85h-1.33v-2.66h-7.44ZM484.46,285.6v2.55h2.62v-2.55h-2.62Z"/>
        <path class="cls-11" d="M499.42,285.28v1.08h-6.89v-1.08h2.77v-1.21h1.34v1.21h2.78ZM498.89,289.11c0,1.32-1.26,2-2.9,2s-2.93-.68-2.93-2v-.16c0-1.33,1.28-2,2.93-2s2.9.67,2.9,2v.16ZM494.32,289.08c0,.59.72.94,1.66.94s1.64-.36,1.64-.94v-.11c0-.57-.71-.96-1.64-.96s-1.66.39-1.66.96v.11ZM501.43,292.94v-1.25h1.33v4.87h-8.17v-4.87h1.32v1.25h5.52ZM495.91,295.39h5.52v-1.29h-5.52v1.29ZM501.43,284.21h1.33v6.84h-1.33v-.81h-2.02v-1.05h2.02v-1.21h-2.02v-1.04h2.02v-2.73Z"/>
        <path class="cls-11" d="M509.17,293.74c1.13-.07,2.36-.17,3.43-.31l.15,1.18c-1.89.27-4.31.41-6.12.41h-2.05l-.07-1.21h2.24c.33,0,.71-.01,1.1-.03v-1.46c-1.4-.19-2.42-.98-2.42-2.31v-.2c0-1.52,1.36-2.34,3.09-2.34s3.07.82,3.07,2.34v.2c0,1.33-1.04,2.13-2.42,2.31v1.41ZM512.15,285.62v1.1h-7.29v-1.1h2.98v-1.4h1.33v1.4h2.98ZM506.72,290c0,.83.79,1.3,1.8,1.3s1.77-.48,1.77-1.3v-.17c0-.81-.79-1.29-1.77-1.29s-1.8.48-1.8,1.29v.17ZM513.64,284.21h1.33v12.35h-1.33v-12.35Z"/>
      </g>
      <g>
        <path class="cls-11" d="M432.77,285.45c0,.46-.05.9-.16,1.32l1.56,1.95-.44.37-1.33-1.67c-.25.61-.64,1.17-1.17,1.73l-.42-.39c.95-.99,1.39-2,1.39-3.31v-.71h.58v.71ZM436.17,286.48v.54h-.84v2.88h-.59v-5.48h.59v2.06h.84Z"/>
        <path class="cls-11" d="M439.66,287.38c-.66.11-1.46.18-2.23.18h-.94v-2.85h2.66v.52h-2.08v1.81h.47c.61,0,1.37-.06,2.05-.17l.07.51ZM437.82,288.18v1.18h3.2v.54h-3.79v-1.72h.58ZM440.74,285.79h.85v.53h-.85v2.2h-.59v-4.1h.59v1.38Z"/>
        <path class="cls-11" d="M434.76,291.08h.58v2.87h-.58v-1.2h-1.13v1.02h-2.71v-2.46h.57v.71h1.58v-.71h.57v.92h1.13v-1.15ZM431.48,293.25h1.58v-.71h-1.58v.71ZM434.76,294.86v-.63h.58v2.32h-3.62v-2.32h.59v.63h2.45ZM432.31,296.03h2.45v-.66h-2.45v.66Z"/>
        <path class="cls-11" d="M436.34,292.82v-.11c0-1,.66-1.48,1.47-1.48s1.46.47,1.46,1.48v.11c0,.99-.66,1.47-1.46,1.47s-1.47-.48-1.47-1.47ZM438.68,292.81v-.09c0-.65-.38-.96-.87-.96s-.88.31-.88.96v.09c0,.64.38.96.88.96s.87-.32.87-.96ZM437.2,296.56v-1.78h.59v1.24h3.26v.54h-3.85ZM440.23,295.18v-4.1h.59v4.1h-.59Z"/>
      </g>
    </g>
  </g>
  <g>
    <g>
      <g>
        <polygon class="cls-11" points="426.8 351.71 423.81 347.96 426.75 344.28 423.27 344.28 422.07 345.78 420.88 344.28 417.4 344.28 420.34 347.96 417.35 351.71 420.83 351.71 422.07 350.15 423.32 351.71 426.8 351.71"/>
        <path class="cls-11" d="M405.67,351.7h-3.38c-3.32,0-6.02-2.7-6.02-6.02s2.7-6.02,6.02-6.02h3.38v2.95h-3.38c-1.69,0-3.06,1.37-3.06,3.06s1.37,3.06,3.06,3.06h3.38v2.95Z"/>
        <path class="cls-11" d="M406.84,346.65v.1c0,2.74,2.28,4.97,5.08,4.97h4.32v-2.82h-4.32c-1.19,0-2.17-.89-2.25-2h5.94v-2.61h-5.95v-1.79h6.57v-2.82h-9.39v6.97Z"/>
        <path class="cls-11" d="M385.72,346.65v.1c0,2.74,2.28,4.97,5.08,4.97h4.32v-2.82h-4.32c-1.19,0-2.17-.89-2.25-2h5.94v-2.61h-5.95v-1.79h6.57v-2.82h-9.39v6.97Z"/>
      </g>
      <g>
        <path class="cls-11" d="M371.42,358.78c-3,0-5.92-.86-8.42-2.49-4.4-2.87-7.03-7.71-7.03-12.96,0-8.52,6.93-15.46,15.46-15.46v1.15c-7.89,0-14.31,6.42-14.31,14.31,0,4.86,2.43,9.34,6.51,12,2.32,1.51,5.01,2.31,7.79,2.31,4.11,0,8.02-1.77,10.74-4.86l.86.76c-2.94,3.33-7.16,5.24-11.6,5.24Z"/>
        <g>
          <path class="cls-11" d="M383.78,339.68l-3.49,5.33,2.39,4.59c1.04-1.86,1.63-3.99,1.63-6.27,0-1.27-.19-2.49-.53-3.65Z"/>
          <path class="cls-11" d="M376.95,345.06l3.5-5.38h3.33c-1.58-5.34-6.51-9.24-12.36-9.24-7.12,0-12.89,5.77-12.89,12.89s5.77,12.89,12.89,12.89c3.91,0,7.41-1.74,9.78-4.49h-.75l-3.5-6.67ZM373.1,336.76c-.5-.12-1.02-.18-1.55-.18-3.72,0-6.75,3.03-6.75,6.75,0,2.29,1.15,4.41,3.07,5.66l-.63.96c-2.25-1.47-3.59-3.94-3.59-6.62,0-4.35,3.54-7.9,7.9-7.9.61,0,1.22.07,1.81.21l-.26,1.12ZM371.55,332.92c-5.74,0-10.41,4.67-10.41,10.41,0,3.54,1.77,6.8,4.74,8.73l-.63.96c-3.29-2.14-5.26-5.77-5.26-9.69,0-6.37,5.19-11.56,11.56-11.56.9,0,1.79.1,2.65.31,1.87.44,3.62,1.35,5.06,2.64l-.77.86c-1.3-1.16-2.87-1.99-4.56-2.38-.78-.18-1.58-.28-2.39-.28ZM376.93,351.72h-2.76v-12.05h2.76v12.05Z"/>
        </g>
      </g>
    </g>
    <g>
      <g>
        <path class="cls-11" d="M451.49,340.88v1.12h-7.22v-1.12h2.94v-1.37h1.34v1.37h2.94ZM450.94,345.24c0,1.5-1.34,2.33-3.05,2.33s-3.06-.82-3.06-2.33v-.2c0-1.52,1.34-2.31,3.06-2.31s3.05.8,3.05,2.31v.2ZM446.14,345.22c0,.77.76,1.24,1.76,1.24s1.76-.47,1.76-1.24v-.15c0-.76-.77-1.22-1.76-1.22s-1.76.47-1.76,1.22v.15ZM447.53,348.58v2.21h7.22v1.21h-8.55v-3.42h1.33ZM454.12,343.26h1.92v1.21h-1.92v4.55h-1.33v-9.37h1.33v3.61Z"/>
        <path class="cls-11" d="M468.05,345.75h-5.14v1.77h3.73v4.62h-1.33v-3.45h-7.44v-1.17h3.73v-1.77h-5.15v-1.17h8.26c.21-1.29.35-2.59.35-3.33h-7.18v-1.2h8.5v.81c0,1.06-.12,2.41-.33,3.71h2.01v1.17Z"/>
        <path class="cls-11" d="M474.89,340.19v5.72h-6v-5.72h1.28v1.69h3.45v-1.69h1.28ZM470.17,344.75h3.45v-1.7h-3.45v1.7ZM475.91,347.11c1.78,0,2.93,1.04,2.93,2.51s-1.14,2.51-2.93,2.51h-2.61c-1.78,0-2.93-1.04-2.93-2.51s1.14-2.51,2.93-2.51h2.61ZM475.7,350.94c1.21,0,1.81-.55,1.81-1.33s-.6-1.32-1.81-1.32h-2.18c-1.21,0-1.81.55-1.81,1.32s.6,1.33,1.81,1.33h2.18ZM478.55,342.24h1.92v1.21h-1.92v3.01h-1.33v-6.8h1.33v2.58Z"/>
        <path class="cls-11" d="M487.34,345.95h5.14v1.14h-11.6v-1.14h5.15v-1.22h-3.79v-1.13h1.85v-2.55h-1.85v-1.12h8.89v1.12h-1.84v2.55h1.84v1.13h-3.78v1.22ZM482.3,349.48v-1.18h8.77v3.85h-1.33v-2.66h-7.44ZM485.37,341.04v2.55h2.62v-2.55h-2.62Z"/>
        <path class="cls-11" d="M500.33,340.72v1.08h-6.89v-1.08h2.77v-1.21h1.34v1.21h2.78ZM499.8,344.55c0,1.32-1.26,2-2.9,2s-2.93-.68-2.93-2v-.16c0-1.33,1.28-2,2.93-2s2.9.67,2.9,2v.16ZM495.23,344.53c0,.59.72.94,1.66.94s1.64-.36,1.64-.94v-.11c0-.57-.71-.96-1.64-.96s-1.66.39-1.66.96v.11ZM502.34,348.38v-1.25h1.33v4.87h-8.17v-4.87h1.32v1.25h5.52ZM496.82,350.83h5.52v-1.29h-5.52v1.29ZM502.34,339.66h1.33v6.84h-1.33v-.81h-2.02v-1.05h2.02v-1.21h-2.02v-1.04h2.02v-2.73Z"/>
        <path class="cls-11" d="M510.08,349.18c1.13-.07,2.36-.17,3.43-.31l.15,1.18c-1.89.27-4.31.41-6.12.41h-2.05l-.07-1.21h2.24c.33,0,.71-.01,1.1-.03v-1.46c-1.4-.19-2.42-.98-2.42-2.31v-.2c0-1.52,1.36-2.34,3.09-2.34s3.07.82,3.07,2.34v.2c0,1.33-1.04,2.13-2.42,2.31v1.41ZM513.06,341.07v1.1h-7.29v-1.1h2.98v-1.4h1.33v1.4h2.98ZM507.63,345.44c0,.83.79,1.3,1.8,1.3s1.77-.48,1.77-1.3v-.17c0-.81-.79-1.29-1.77-1.29s-1.8.48-1.8,1.29v.17ZM514.55,339.66h1.33v12.35h-1.33v-12.35Z"/>
      </g>
      <g>
        <path class="cls-11" d="M433.68,340.9c0,.46-.05.9-.16,1.32l1.56,1.95-.44.37-1.33-1.67c-.25.61-.64,1.17-1.17,1.73l-.42-.39c.95-.99,1.39-2,1.39-3.31v-.71h.58v.71ZM437.08,341.92v.54h-.84v2.88h-.59v-5.48h.59v2.06h.84Z"/>
        <path class="cls-11" d="M440.57,342.82c-.66.11-1.46.18-2.23.18h-.94v-2.85h2.66v.52h-2.08v1.81h.47c.61,0,1.37-.06,2.05-.17l.07.51ZM438.73,343.62v1.18h3.2v.54h-3.79v-1.72h.58ZM441.65,341.24h.85v.53h-.85v2.2h-.59v-4.1h.59v1.38Z"/>
        <path class="cls-11" d="M435.67,346.53h.58v2.87h-.58v-1.2h-1.13v1.02h-2.71v-2.46h.57v.71h1.58v-.71h.57v.92h1.13v-1.15ZM432.39,348.7h1.58v-.71h-1.58v.71ZM435.67,350.31v-.63h.58v2.32h-3.62v-2.32h.59v.63h2.45ZM433.22,351.48h2.45v-.66h-2.45v.66Z"/>
        <path class="cls-11" d="M437.25,348.26v-.11c0-1,.66-1.48,1.47-1.48s1.46.47,1.46,1.48v.11c0,.99-.66,1.47-1.46,1.47s-1.47-.48-1.47-1.47ZM439.59,348.25v-.09c0-.65-.38-.96-.87-.96s-.88.31-.88.96v.09c0,.64.38.96.88.96s.87-.32.87-.96ZM438.11,352v-1.78h.59v1.24h3.26v.54h-3.85ZM441.14,350.63v-4.1h.59v4.1h-.59Z"/>
      </g>
    </g>
  </g>
  <g>
    <g>
      <path class="cls-11" d="M383.09,529.21l.97.9c-1.94,2.19-2.83,4.53-2.83,6.98s.88,4.78,2.83,6.98l-.97.9c-2.09-2.19-3.25-4.84-3.25-7.88s1.16-5.68,3.25-7.88Z"/>
      <path class="cls-11" d="M389.7,531.94c0,1.25-.15,2.46-.43,3.6l4.24,5.3-1.21,1.01-3.63-4.55c-.69,1.66-1.74,3.2-3.18,4.71l-1.14-1.06c2.59-2.7,3.78-5.45,3.78-9.02v-1.94h1.58v1.94ZM398.96,534.74v1.46h-2.3v7.84h-1.61v-14.92h1.61v5.61h2.3Z"/>
      <path class="cls-11" d="M400.33,544.96l-.97-.9c1.94-2.19,2.83-4.55,2.83-6.98s-.88-4.78-2.83-6.98l.97-.9c2.09,2.19,3.25,4.84,3.25,7.88s-1.16,5.68-3.25,7.88Z"/>
      <path class="cls-11" d="M413.95,530.61v1.35h-8.73v-1.35h3.55v-1.66h1.62v1.66h3.55ZM413.29,535.88c0,1.82-1.62,2.81-3.68,2.81s-3.7-1-3.7-2.81v-.24c0-1.83,1.62-2.8,3.7-2.8s3.68.96,3.68,2.8v.24ZM407.49,535.85c0,.93.92,1.49,2.12,1.49s2.12-.56,2.12-1.49v-.18c0-.92-.93-1.48-2.12-1.48s-2.12.56-2.12,1.48v.18ZM409.18,539.92v2.67h8.73v1.46h-10.34v-4.13h1.61ZM417.14,533.49h2.31v1.46h-2.31v5.5h-1.61v-11.32h1.61v4.36Z"/>
      <path class="cls-11" d="M434.13,536.49h-6.2v2.14h4.5v5.58h-1.61v-4.16h-8.99v-1.41h4.5v-2.14h-6.22v-1.41h9.98c.26-1.56.42-3.13.42-4.02h-8.68v-1.45h10.27v.98c0,1.29-.14,2.91-.4,4.49h2.43v1.41Z"/>
      <path class="cls-11" d="M442.55,529.77v6.91h-7.25v-6.91h1.54v2.04h4.16v-2.04h1.54ZM436.84,535.29h4.16v-2.06h-4.16v2.06ZM443.79,538.13c2.15,0,3.54,1.25,3.54,3.04s-1.38,3.04-3.54,3.04h-3.15c-2.15,0-3.54-1.25-3.54-3.04s1.38-3.04,3.54-3.04h3.15ZM443.53,542.76c1.46,0,2.19-.66,2.19-1.61s-.72-1.59-2.19-1.59h-2.64c-1.46,0-2.19.66-2.19,1.59s.72,1.61,2.19,1.61h2.64ZM446.97,532.25h2.31v1.46h-2.31v3.63h-1.61v-8.21h1.61v3.12Z"/>
      <path class="cls-11" d="M457.75,536.73h6.2v1.38h-14.02v-1.38h6.22v-1.48h-4.58v-1.37h2.23v-3.09h-2.23v-1.35h10.74v1.35h-2.22v3.09h2.22v1.37h-4.56v1.48ZM451.66,540.99v-1.43h10.59v4.65h-1.61v-3.21h-8.99ZM455.37,530.8v3.09h3.17v-3.09h-3.17Z"/>
      <path class="cls-11" d="M473.6,530.42v1.3h-8.33v-1.3h3.34v-1.46h1.62v1.46h3.36ZM472.96,535.05c0,1.59-1.53,2.41-3.5,2.41s-3.54-.82-3.54-2.41v-.19c0-1.61,1.54-2.41,3.54-2.41s3.5.8,3.5,2.41v.19ZM467.44,535.01c0,.71.87,1.14,2.01,1.14s1.98-.43,1.98-1.14v-.13c0-.69-.85-1.16-1.98-1.16s-2.01.47-2.01,1.16v.13ZM476.03,539.68v-1.51h1.61v5.88h-9.87v-5.88h1.59v1.51h6.67ZM469.36,542.63h6.67v-1.56h-6.67v1.56ZM476.03,529.13h1.61v8.26h-1.61v-.98h-2.44v-1.27h2.44v-1.46h-2.44v-1.25h2.44v-3.3Z"/>
      <path class="cls-11" d="M485.54,540.64c1.37-.08,2.84-.21,4.15-.37l.18,1.43c-2.28.32-5.21.5-7.39.5h-2.48l-.08-1.46h2.7c.4,0,.85-.02,1.33-.03v-1.77c-1.69-.23-2.93-1.19-2.93-2.8v-.24c0-1.83,1.64-2.83,3.73-2.83s3.71,1,3.71,2.83v.24c0,1.61-1.25,2.57-2.93,2.8v1.7ZM489.14,530.83v1.33h-8.81v-1.33h3.6v-1.69h1.61v1.69h3.6ZM482.59,536.12c0,1,.95,1.57,2.17,1.57s2.14-.58,2.14-1.57v-.21c0-.98-.95-1.56-2.14-1.56s-2.17.58-2.17,1.56v.21ZM490.94,529.13h1.61v14.92h-1.61v-14.92Z"/>
    </g>
    <g>
      <path class="cls-10" d="M382.77,550.28l-1.2-1.53-.33.37v1.16h-.41v-3.3h.41v1.55l1.4-1.55h.54l-1.33,1.47,1.45,1.83h-.52Z"/>
      <path class="cls-10" d="M383.35,549.24v-.33c0-.72.52-1.09,1.1-1.09s1.1.38,1.1,1.09v.33c0,.72-.52,1.09-1.1,1.09s-1.1-.37-1.1-1.09ZM385.14,549.23v-.3c0-.48-.32-.73-.69-.73s-.69.25-.69.73v.3c0,.48.32.73.69.73s.69-.25.69-.73Z"/>
      <path class="cls-10" d="M387.4,547.88l-.1.37c-.09-.03-.2-.04-.29-.04-.29,0-.52.26-.52.65v1.43h-.41v-2.39h.38l.02.36c.11-.25.32-.42.6-.42.11,0,.23.02.32.05Z"/>
      <path class="cls-10" d="M389.72,549.23h-1.76c0,.49.32.75.69.75.29,0,.55-.14.66-.42l.37.12c-.15.44-.57.66-1.04.66-.58,0-1.09-.38-1.09-1.12v-.27c0-.74.5-1.12,1.08-1.12s1.08.39,1.08,1.14v.26ZM389.31,548.88c0-.42-.29-.69-.68-.69-.35,0-.65.24-.68.69h1.35Z"/>
      <path class="cls-10" d="M392.11,548.75v1.53h-.37l-.02-.31c-.13.23-.38.37-.7.37h-.16c-.44,0-.77-.31-.77-.76s.32-.73.91-.73h.72v-.08c0-.34-.2-.57-.58-.57-.27,0-.47.13-.58.34l-.37-.16c.17-.32.53-.55.98-.55.55,0,.96.34.96.93ZM391.09,549.96c.3,0,.58-.18.62-.48v-.28h-.7c-.35,0-.52.15-.52.38s.18.38.45.38h.15Z"/>
      <path class="cls-10" d="M394.09,549.91h1.69v.36h-2.1v-3.3h2.06v.36h-1.65v1.05h1.57v.37h-1.57v1.16Z"/>
      <path class="cls-10" d="M398.35,548.82v1.46h-.41v-1.44c0-.42-.22-.64-.6-.64s-.64.26-.64.63v1.44h-.41v-2.39h.38l.02.35c.15-.24.42-.41.76-.41.53,0,.9.39.9,1Z"/>
      <path class="cls-10" d="M400.62,547.88h.38v2.07c0,.72-.49,1.08-1.09,1.08-.45,0-.85-.15-1.02-.48l.41-.16c.1.2.34.3.61.3.44,0,.68-.28.68-.76v-.16c-.19.24-.48.37-.79.37-.49,0-.98-.39-.98-1.04v-.24c0-.64.49-1.04.98-1.04.32,0,.61.14.8.39l.02-.33ZM400.59,549.09v-.22c0-.43-.31-.69-.68-.69s-.69.26-.69.69v.22c0,.43.31.69.69.69s.68-.26.68-.69Z"/>
      <path class="cls-10" d="M401.61,547.17c0-.15.11-.26.26-.26s.26.12.26.26-.11.26-.26.26-.26-.12-.26-.26ZM401.67,550.28v-2.39h.41v2.39h-.41Z"/>
      <path class="cls-10" d="M404.82,548.82v1.46h-.41v-1.44c0-.42-.22-.64-.6-.64s-.64.26-.64.63v1.44h-.41v-2.39h.38l.02.35c.15-.24.42-.41.76-.41.53,0,.9.39.9,1Z"/>
      <path class="cls-10" d="M407.45,549.23h-1.76c0,.49.32.75.69.75.29,0,.55-.14.66-.42l.37.12c-.15.44-.57.66-1.04.66-.58,0-1.09-.38-1.09-1.12v-.27c0-.74.5-1.12,1.08-1.12s1.08.39,1.08,1.14v.26ZM407.05,548.88c0-.42-.29-.69-.68-.69-.35,0-.65.24-.68.69h1.35Z"/>
      <path class="cls-10" d="M410.04,549.23h-1.76c0,.49.32.75.69.75.29,0,.55-.14.66-.42l.37.12c-.15.44-.57.66-1.04.66-.58,0-1.09-.38-1.09-1.12v-.27c0-.74.5-1.12,1.08-1.12s1.08.39,1.08,1.14v.26ZM409.63,548.88c0-.42-.29-.69-.68-.69-.35,0-.65.24-.68.69h1.35Z"/>
      <path class="cls-10" d="M411.88,547.88l-.1.37c-.09-.03-.2-.04-.29-.04-.29,0-.52.26-.52.65v1.43h-.41v-2.39h.38l.02.36c.11-.25.32-.42.6-.42.11,0,.23.02.32.05Z"/>
      <path class="cls-10" d="M412.27,547.17c0-.15.11-.26.26-.26s.26.12.26.26-.11.26-.26.26-.26-.12-.26-.26ZM412.33,550.28v-2.39h.41v2.39h-.41Z"/>
      <path class="cls-10" d="M415.48,548.82v1.46h-.41v-1.44c0-.42-.22-.64-.6-.64s-.64.26-.64.63v1.44h-.41v-2.39h.38l.02.35c.15-.24.42-.41.76-.41.53,0,.9.39.9,1Z"/>
      <path class="cls-10" d="M417.75,547.88h.38v2.07c0,.72-.49,1.08-1.09,1.08-.45,0-.85-.15-1.02-.48l.41-.16c.1.2.34.3.61.3.44,0,.68-.28.68-.76v-.16c-.19.24-.48.37-.79.37-.49,0-.98-.39-.98-1.04v-.24c0-.64.49-1.04.98-1.04.32,0,.61.14.8.39l.02-.33ZM417.72,549.09v-.22c0-.43-.31-.69-.68-.69s-.69.26-.69.69v.22c0,.43.31.69.69.69s.68-.26.68-.69Z"/>
      <path class="cls-10" d="M419.64,548.93v-.59c0-.9.63-1.41,1.39-1.41.67,0,1.14.39,1.3,1.04l-.39.11c-.13-.5-.43-.77-.92-.77-.54,0-.98.36-.98,1.06v.54c0,.7.44,1.06.98,1.06.49,0,.79-.27.92-.77l.39.11c-.16.65-.63,1.04-1.3,1.04-.76,0-1.39-.52-1.39-1.41Z"/>
      <path class="cls-10" d="M422.74,549.24v-.33c0-.72.52-1.09,1.1-1.09s1.1.38,1.1,1.09v.33c0,.72-.52,1.09-1.1,1.09s-1.1-.37-1.1-1.09ZM424.53,549.23v-.3c0-.48-.32-.73-.69-.73s-.69.25-.69.73v.3c0,.48.32.73.69.73s.69-.25.69-.73Z"/>
      <path class="cls-10" d="M428.77,548.82v1.46h-.41v-1.45c0-.42-.2-.63-.51-.63s-.53.24-.53.63v1.44h-.4v-1.45c0-.42-.2-.63-.51-.63s-.53.22-.53.64v1.44h-.41v-2.39h.38l.02.32c.13-.22.35-.38.65-.38.33,0,.57.17.7.47.13-.28.4-.47.74-.47.48,0,.81.39.81,1Z"/>
      <path class="cls-10" d="M432.64,548.82v1.46h-.41v-1.45c0-.42-.2-.63-.51-.63s-.53.24-.53.63v1.44h-.4v-1.45c0-.42-.2-.63-.51-.63s-.53.22-.53.64v1.44h-.41v-2.39h.38l.02.32c.13-.22.35-.38.65-.38.33,0,.57.17.7.47.13-.28.4-.47.74-.47.48,0,.81.39.81,1Z"/>
      <path class="cls-10" d="M433.21,547.17c0-.15.11-.26.26-.26s.26.12.26.26-.11.26-.26.26-.26-.12-.26-.26ZM433.27,550.28v-2.39h.41v2.39h-.41Z"/>
      <path class="cls-10" d="M435.7,550.22c-.15.09-.34.12-.5.12-.37,0-.61-.2-.61-.61v-1.47h-.43v-.37h.43v-.66h.41v.66h.62v.37h-.62v1.42c0,.23.1.28.26.28.13,0,.23-.03.35-.09l.1.34Z"/>
      <path class="cls-10" d="M437.42,550.22c-.15.09-.34.12-.5.12-.37,0-.61-.2-.61-.61v-1.47h-.43v-.37h.43v-.66h.41v.66h.62v.37h-.62v1.42c0,.23.1.28.26.28.13,0,.23-.03.35-.09l.1.34Z"/>
      <path class="cls-10" d="M439.82,549.23h-1.76c0,.49.32.75.69.75.29,0,.55-.14.66-.42l.37.12c-.15.44-.57.66-1.04.66-.58,0-1.09-.38-1.09-1.12v-.27c0-.74.5-1.12,1.08-1.12s1.08.39,1.08,1.14v.26ZM439.42,548.88c0-.42-.29-.69-.68-.69-.35,0-.65.24-.68.69h1.35Z"/>
      <path class="cls-10" d="M442.41,549.23h-1.76c0,.49.32.75.69.75.29,0,.55-.14.66-.42l.37.12c-.15.44-.57.66-1.04.66-.58,0-1.09-.38-1.09-1.12v-.27c0-.74.5-1.12,1.08-1.12s1.08.39,1.08,1.14v.26ZM442,548.88c0-.42-.29-.69-.68-.69-.35,0-.65.24-.68.69h1.35Z"/>
      <path class="cls-10" d="M444.57,547.88h.62v.38h-.62v2.01h-.41v-2.01h-.43v-.38h.43v-.34c0-.44.25-.68.62-.68.15,0,.37.06.52.16l-.15.32c-.13-.07-.22-.11-.33-.11-.16,0-.26.09-.26.33v.32Z"/>
      <path class="cls-10" d="M445.45,549.24v-.33c0-.72.52-1.09,1.1-1.09s1.1.38,1.1,1.09v.33c0,.72-.52,1.09-1.1,1.09s-1.1-.37-1.1-1.09ZM447.24,549.23v-.3c0-.48-.32-.73-.69-.73s-.69.25-.69.73v.3c0,.48.32.73.69.73s.69-.25.69-.73Z"/>
      <path class="cls-10" d="M449.49,547.88l-.1.37c-.09-.03-.2-.04-.29-.04-.29,0-.52.26-.52.65v1.43h-.41v-2.39h.38l.02.36c.11-.25.32-.42.6-.42.11,0,.23.02.32.05Z"/>
      <path class="cls-10" d="M451.28,549.91h1.69v.36h-2.1v-3.3h2.06v.36h-1.65v1.05h1.57v.37h-1.57v1.16Z"/>
      <path class="cls-10" d="M453.22,550.28l.88-1.21-.85-1.18h.46l.61.86.61-.86h.47l-.85,1.18.88,1.21h-.47l-.64-.9-.64.9h-.47Z"/>
      <path class="cls-10" d="M457.94,548.95v.28c0,.71-.49,1.12-.98,1.12-.32,0-.61-.14-.79-.4v1.02h-.41v-3.08h.38l.02.35c.18-.26.48-.41.8-.41.49,0,.98.41.98,1.12ZM457.53,548.96c0-.5-.31-.76-.68-.76s-.68.26-.68.76v.26c0,.5.3.76.68.76s.68-.26.68-.76v-.26Z"/>
      <path class="cls-10" d="M458.43,550.28v-3.3h.41v3.3h-.41Z"/>
      <path class="cls-10" d="M459.37,549.24v-.33c0-.72.52-1.09,1.1-1.09s1.1.38,1.1,1.09v.33c0,.72-.52,1.09-1.1,1.09s-1.1-.37-1.1-1.09ZM461.16,549.23v-.3c0-.48-.32-.73-.69-.73s-.69.25-.69.73v.3c0,.48.32.73.69.73s.69-.25.69-.73Z"/>
      <path class="cls-10" d="M462.23,549.54c.18.31.46.45.75.45s.53-.11.53-.33-.18-.3-.43-.37l-.31-.09c-.37-.1-.7-.28-.7-.71s.37-.67.85-.67.77.22.97.53l-.31.22c-.16-.24-.39-.4-.68-.4s-.45.13-.45.32.14.29.39.36l.3.09c.37.1.75.27.75.72s-.44.68-.93.68-.86-.2-1.07-.59l.32-.21Z"/>
      <path class="cls-10" d="M464.42,547.17c0-.15.11-.26.26-.26s.26.12.26.26-.11.26-.26.26-.26-.12-.26-.26ZM464.48,550.28v-2.39h.41v2.39h-.41Z"/>
      <path class="cls-10" d="M465.41,549.24v-.33c0-.72.52-1.09,1.1-1.09s1.1.38,1.1,1.09v.33c0,.72-.52,1.09-1.1,1.09s-1.1-.37-1.1-1.09ZM467.2,549.23v-.3c0-.48-.32-.73-.69-.73s-.69.25-.69.73v.3c0,.48.32.73.69.73s.69-.25.69-.73Z"/>
      <path class="cls-10" d="M470.2,548.82v1.46h-.41v-1.44c0-.42-.22-.64-.6-.64s-.64.26-.64.63v1.44h-.41v-2.39h.38l.02.35c.15-.24.42-.41.76-.41.53,0,.9.39.9,1Z"/>
      <path class="cls-10" d="M473.91,548.95v.28c0,.71-.49,1.12-.98,1.12-.32,0-.61-.14-.79-.4v1.02h-.41v-3.08h.38l.02.35c.18-.26.48-.41.8-.41.49,0,.98.41.98,1.12ZM473.5,548.96c0-.5-.31-.76-.68-.76s-.68.26-.68.76v.26c0,.5.3.76.68.76s.68-.26.68-.76v-.26Z"/>
      <path class="cls-10" d="M475.71,547.88l-.1.37c-.09-.03-.2-.04-.29-.04-.29,0-.52.26-.52.65v1.43h-.41v-2.39h.38l.02.36c.11-.25.32-.42.6-.42.11,0,.23.02.32.05Z"/>
      <path class="cls-10" d="M475.87,549.24v-.33c0-.72.52-1.09,1.1-1.09s1.1.38,1.1,1.09v.33c0,.72-.52,1.09-1.1,1.09s-1.1-.37-1.1-1.09ZM477.66,549.23v-.3c0-.48-.32-.73-.69-.73s-.69.25-.69.73v.3c0,.48.32.73.69.73s.69-.25.69-.73Z"/>
      <path class="cls-10" d="M479.9,550.22c-.15.09-.34.12-.5.12-.37,0-.61-.2-.61-.61v-1.47h-.43v-.37h.43v-.66h.41v.66h.62v.37h-.62v1.42c0,.23.1.28.26.28.13,0,.23-.03.35-.09l.1.34Z"/>
      <path class="cls-10" d="M482.3,549.23h-1.76c0,.49.32.75.69.75.29,0,.55-.14.66-.42l.37.12c-.15.44-.57.66-1.04.66-.58,0-1.09-.38-1.09-1.12v-.27c0-.74.5-1.12,1.08-1.12s1.08.39,1.08,1.14v.26ZM481.9,548.88c0-.42-.29-.69-.68-.69-.35,0-.65.24-.68.69h1.35Z"/>
      <path class="cls-10" d="M482.73,549.24v-.33c0-.72.52-1.09,1.1-1.09.44,0,.84.23,1,.66l-.38.15c-.11-.28-.35-.43-.63-.43-.37,0-.69.25-.69.73v.3c0,.48.32.73.69.73.28,0,.51-.14.63-.43l.38.15c-.16.44-.56.66-1,.66-.58,0-1.1-.37-1.1-1.09Z"/>
      <path class="cls-10" d="M486.64,550.22c-.15.09-.34.12-.5.12-.37,0-.61-.2-.61-.61v-1.47h-.43v-.37h.43v-.66h.41v.66h.62v.37h-.62v1.42c0,.23.1.28.26.28.13,0,.23-.03.35-.09l.1.34Z"/>
      <path class="cls-10" d="M487.03,547.17c0-.15.11-.26.26-.26s.26.12.26.26-.11.26-.26.26-.26-.12-.26-.26ZM487.08,550.28v-2.39h.41v2.39h-.41Z"/>
      <path class="cls-10" d="M488.02,549.24v-.33c0-.72.52-1.09,1.1-1.09s1.1.38,1.1,1.09v.33c0,.72-.52,1.09-1.1,1.09s-1.1-.37-1.1-1.09ZM489.81,549.23v-.3c0-.48-.32-.73-.69-.73s-.69.25-.69.73v.3c0,.48.32.73.69.73s.69-.25.69-.73Z"/>
      <path class="cls-10" d="M492.81,548.82v1.46h-.41v-1.44c0-.42-.22-.64-.6-.64s-.64.26-.64.63v1.44h-.41v-2.39h.38l.02.35c.15-.24.42-.41.76-.41.53,0,.9.39.9,1Z"/>
    </g>
  </g>
  <g>
    <g>
      <polygon class="cls-11" points="474.66 514.44 471.43 510.39 474.61 506.4 470.84 506.4 469.55 508.02 468.25 506.4 464.49 506.4 467.67 510.39 464.43 514.44 468.2 514.44 469.55 512.75 470.9 514.44 474.66 514.44"/>
      <path class="cls-11" d="M451.79,514.43h-3.66c-3.59,0-6.52-2.92-6.52-6.52s2.92-6.52,6.52-6.52h3.66v3.2h-3.66c-1.83,0-3.32,1.49-3.32,3.32s1.49,3.32,3.32,3.32h3.66v3.2Z"/>
      <path class="cls-11" d="M453.05,508.96v.1c0,2.97,2.47,5.38,5.5,5.38h4.68v-3.06h-4.68c-1.29,0-2.35-.96-2.43-2.17h6.44v-2.82h-6.45v-1.94h7.12v-3.06h-10.17v7.55Z"/>
      <path class="cls-11" d="M430.17,508.96v.1c0,2.97,2.47,5.38,5.5,5.38h4.68v-3.06h-4.68c-1.29,0-2.35-.96-2.43-2.17h6.44v-2.82h-6.45v-1.94h7.12v-3.06h-10.17v7.55Z"/>
    </g>
    <g>
      <path class="cls-11" d="M414.69,522.1c-3.25,0-6.41-.93-9.12-2.7-4.77-3.11-7.62-8.35-7.62-14.04,0-9.23,7.51-16.74,16.74-16.74v1.24c-8.54,0-15.49,6.95-15.49,15.49,0,5.26,2.64,10.12,7.05,12.99,2.51,1.63,5.43,2.5,8.44,2.5,4.45,0,8.69-1.92,11.63-5.26l.93.82c-3.18,3.61-7.76,5.68-12.56,5.68Z"/>
      <g>
        <path class="cls-11" d="M428.08,501.41l-3.78,5.77,2.58,4.98c1.12-2.01,1.76-4.33,1.76-6.79,0-1.37-.2-2.7-.57-3.95Z"/>
        <path class="cls-11" d="M420.68,507.23l3.79-5.83h3.61c-1.71-5.78-7.05-10-13.39-10-7.71,0-13.96,6.25-13.96,13.96s6.25,13.96,13.96,13.96c4.23,0,8.03-1.89,10.59-4.87h-.81l-3.79-7.22ZM416.51,498.25c-.55-.13-1.11-.19-1.68-.19-4.03,0-7.31,3.28-7.31,7.31,0,2.48,1.24,4.77,3.33,6.13l-.68,1.04c-2.44-1.59-3.89-4.27-3.89-7.17,0-4.72,3.84-8.55,8.55-8.55.66,0,1.32.08,1.96.23l-.28,1.21ZM414.83,494.09c-6.22,0-11.27,5.06-11.27,11.27,0,3.83,1.92,7.36,5.13,9.46l-.68,1.04c-3.57-2.32-5.7-6.25-5.7-10.5,0-6.9,5.62-12.52,12.52-12.52.97,0,1.94.11,2.87.33,2.03.48,3.92,1.47,5.48,2.86l-.83.93c-1.4-1.26-3.11-2.15-4.94-2.58-.84-.2-1.71-.3-2.59-.3ZM420.66,514.46h-2.98v-13.05h2.98v13.05Z"/>
      </g>
    </g>
  </g>
  <g>
    <g>
      <path class="cls-11" d="M105.9,529.33l.97.9c-1.94,2.19-2.83,4.53-2.83,6.98s.88,4.78,2.83,6.98l-.97.9c-2.09-2.19-3.25-4.84-3.25-7.88s1.16-5.68,3.25-7.88Z"/>
      <path class="cls-11" d="M112.51,532.07c0,1.25-.15,2.46-.43,3.6l4.24,5.3-1.21,1.01-3.63-4.55c-.69,1.66-1.74,3.2-3.18,4.71l-1.14-1.06c2.59-2.7,3.78-5.45,3.78-9.02v-1.94h1.58v1.94ZM121.77,534.86v1.46h-2.3v7.84h-1.61v-14.92h1.61v5.61h2.3Z"/>
      <path class="cls-11" d="M123.14,545.08l-.97-.9c1.94-2.19,2.83-4.55,2.83-6.98s-.88-4.78-2.83-6.98l.97-.9c2.09,2.19,3.25,4.84,3.25,7.88s-1.16,5.68-3.25,7.88Z"/>
      <path class="cls-11" d="M136.76,530.73v1.35h-8.73v-1.35h3.55v-1.66h1.62v1.66h3.55ZM136.1,536c0,1.82-1.62,2.81-3.68,2.81s-3.7-1-3.7-2.81v-.24c0-1.83,1.62-2.8,3.7-2.8s3.68.96,3.68,2.8v.24ZM130.3,535.97c0,.93.92,1.49,2.12,1.49s2.12-.56,2.12-1.49v-.18c0-.92-.93-1.48-2.12-1.48s-2.12.56-2.12,1.48v.18ZM131.99,540.04v2.67h8.73v1.46h-10.34v-4.13h1.61ZM139.95,533.61h2.31v1.46h-2.31v5.5h-1.61v-11.32h1.61v4.36Z"/>
      <path class="cls-11" d="M156.94,536.62h-6.2v2.14h4.5v5.58h-1.61v-4.16h-8.99v-1.41h4.5v-2.14h-6.22v-1.41h9.98c.26-1.56.42-3.13.42-4.02h-8.68v-1.45h10.27v.98c0,1.29-.14,2.91-.4,4.49h2.43v1.41Z"/>
      <path class="cls-11" d="M165.36,529.9v6.91h-7.25v-6.91h1.54v2.04h4.16v-2.04h1.54ZM159.65,535.41h4.16v-2.06h-4.16v2.06ZM166.6,538.26c2.15,0,3.54,1.25,3.54,3.04s-1.38,3.04-3.54,3.04h-3.15c-2.15,0-3.54-1.25-3.54-3.04s1.38-3.04,3.54-3.04h3.15ZM166.34,542.89c1.46,0,2.19-.66,2.19-1.61s-.72-1.59-2.19-1.59h-2.64c-1.46,0-2.19.66-2.19,1.59s.72,1.61,2.19,1.61h2.64ZM169.78,532.37h2.31v1.46h-2.31v3.63h-1.61v-8.21h1.61v3.12Z"/>
      <path class="cls-11" d="M180.56,536.86h6.2v1.38h-14.02v-1.38h6.22v-1.48h-4.58v-1.37h2.23v-3.09h-2.23v-1.35h10.74v1.35h-2.22v3.09h2.22v1.37h-4.56v1.48ZM174.47,541.12v-1.43h10.59v4.65h-1.61v-3.21h-8.99ZM178.18,530.93v3.09h3.17v-3.09h-3.17Z"/>
      <path class="cls-11" d="M196.41,530.54v1.3h-8.33v-1.3h3.34v-1.46h1.62v1.46h3.36ZM195.77,535.17c0,1.59-1.53,2.41-3.5,2.41s-3.54-.82-3.54-2.41v-.19c0-1.61,1.54-2.41,3.54-2.41s3.5.8,3.5,2.41v.19ZM190.26,535.14c0,.71.87,1.14,2.01,1.14s1.98-.43,1.98-1.14v-.13c0-.69-.85-1.16-1.98-1.16s-2.01.47-2.01,1.16v.13ZM198.84,539.8v-1.51h1.61v5.88h-9.87v-5.88h1.59v1.51h6.67ZM192.17,542.76h6.67v-1.56h-6.67v1.56ZM198.84,529.25h1.61v8.26h-1.61v-.98h-2.44v-1.27h2.44v-1.46h-2.44v-1.25h2.44v-3.3Z"/>
      <path class="cls-11" d="M208.35,540.76c1.37-.08,2.84-.21,4.15-.37l.18,1.43c-2.28.32-5.21.5-7.39.5h-2.48l-.08-1.46h2.7c.4,0,.85-.02,1.33-.03v-1.77c-1.69-.23-2.93-1.19-2.93-2.8v-.24c0-1.83,1.64-2.83,3.73-2.83s3.71,1,3.71,2.83v.24c0,1.61-1.25,2.57-2.93,2.8v1.7ZM211.95,530.96v1.33h-8.81v-1.33h3.6v-1.69h1.61v1.69h3.6ZM205.4,536.25c0,1,.95,1.57,2.17,1.57s2.14-.58,2.14-1.57v-.21c0-.98-.95-1.56-2.14-1.56s-2.17.58-2.17,1.56v.21ZM213.76,529.25h1.61v14.92h-1.61v-14.92Z"/>
    </g>
    <g>
      <path class="cls-10" d="M105.58,550.4l-1.2-1.53-.33.37v1.16h-.41v-3.3h.41v1.55l1.4-1.55h.54l-1.33,1.47,1.45,1.83h-.52Z"/>
      <path class="cls-10" d="M106.16,549.37v-.33c0-.72.52-1.09,1.1-1.09s1.1.38,1.1,1.09v.33c0,.72-.52,1.09-1.1,1.09s-1.1-.37-1.1-1.09ZM107.95,549.35v-.3c0-.48-.32-.73-.69-.73s-.69.25-.69.73v.3c0,.48.32.73.69.73s.69-.25.69-.73Z"/>
      <path class="cls-10" d="M110.21,548l-.1.37c-.09-.03-.2-.04-.29-.04-.29,0-.52.26-.52.65v1.43h-.41v-2.39h.38l.02.36c.11-.25.32-.42.6-.42.11,0,.23.02.32.05Z"/>
      <path class="cls-10" d="M112.53,549.35h-1.76c0,.49.32.75.69.75.29,0,.55-.14.66-.42l.37.12c-.15.44-.57.66-1.04.66-.58,0-1.09-.38-1.09-1.12v-.27c0-.74.5-1.12,1.08-1.12s1.08.39,1.08,1.14v.26ZM112.12,549c0-.42-.29-.69-.68-.69-.35,0-.65.24-.68.69h1.35Z"/>
      <path class="cls-10" d="M114.92,548.87v1.53h-.37l-.02-.31c-.13.23-.38.37-.7.37h-.16c-.44,0-.77-.31-.77-.76s.32-.73.91-.73h.72v-.08c0-.34-.2-.57-.58-.57-.27,0-.47.13-.58.34l-.37-.16c.17-.32.53-.55.98-.55.55,0,.96.34.96.93ZM113.9,550.09c.3,0,.58-.18.62-.48v-.28h-.7c-.35,0-.52.15-.52.38s.18.38.45.38h.15Z"/>
      <path class="cls-10" d="M116.9,550.04h1.69v.36h-2.1v-3.3h2.06v.36h-1.65v1.05h1.57v.37h-1.57v1.16Z"/>
      <path class="cls-10" d="M121.16,548.94v1.46h-.41v-1.44c0-.42-.22-.64-.6-.64s-.64.26-.64.63v1.44h-.41v-2.39h.38l.02.35c.15-.24.42-.41.76-.41.53,0,.9.39.9,1Z"/>
      <path class="cls-10" d="M123.43,548.01h.38v2.07c0,.72-.49,1.08-1.09,1.08-.45,0-.85-.15-1.02-.48l.41-.16c.1.2.34.3.61.3.44,0,.68-.28.68-.76v-.16c-.19.24-.48.37-.79.37-.49,0-.98-.39-.98-1.04v-.24c0-.64.49-1.04.98-1.04.32,0,.61.14.8.39l.02-.33ZM123.4,549.21v-.22c0-.43-.31-.69-.68-.69s-.69.26-.69.69v.22c0,.43.31.69.69.69s.68-.26.68-.69Z"/>
      <path class="cls-10" d="M124.42,547.3c0-.15.11-.26.26-.26s.26.12.26.26-.11.26-.26.26-.26-.12-.26-.26ZM124.48,550.4v-2.39h.41v2.39h-.41Z"/>
      <path class="cls-10" d="M127.63,548.94v1.46h-.41v-1.44c0-.42-.22-.64-.6-.64s-.64.26-.64.63v1.44h-.41v-2.39h.38l.02.35c.15-.24.42-.41.76-.41.53,0,.9.39.9,1Z"/>
      <path class="cls-10" d="M130.26,549.35h-1.76c0,.49.32.75.69.75.29,0,.55-.14.66-.42l.37.12c-.15.44-.57.66-1.04.66-.58,0-1.09-.38-1.09-1.12v-.27c0-.74.5-1.12,1.08-1.12s1.08.39,1.08,1.14v.26ZM129.86,549c0-.42-.29-.69-.68-.69-.35,0-.65.24-.68.69h1.35Z"/>
      <path class="cls-10" d="M132.85,549.35h-1.76c0,.49.32.75.69.75.29,0,.55-.14.66-.42l.37.12c-.15.44-.57.66-1.04.66-.58,0-1.09-.38-1.09-1.12v-.27c0-.74.5-1.12,1.08-1.12s1.08.39,1.08,1.14v.26ZM132.44,549c0-.42-.29-.69-.68-.69-.35,0-.65.24-.68.69h1.35Z"/>
      <path class="cls-10" d="M134.69,548l-.1.37c-.09-.03-.2-.04-.29-.04-.29,0-.52.26-.52.65v1.43h-.41v-2.39h.38l.02.36c.11-.25.32-.42.6-.42.11,0,.23.02.32.05Z"/>
      <path class="cls-10" d="M135.08,547.3c0-.15.11-.26.26-.26s.26.12.26.26-.11.26-.26.26-.26-.12-.26-.26ZM135.14,550.4v-2.39h.41v2.39h-.41Z"/>
      <path class="cls-10" d="M138.29,548.94v1.46h-.41v-1.44c0-.42-.22-.64-.6-.64s-.64.26-.64.63v1.44h-.41v-2.39h.38l.02.35c.15-.24.42-.41.76-.41.53,0,.9.39.9,1Z"/>
      <path class="cls-10" d="M140.57,548.01h.38v2.07c0,.72-.49,1.08-1.09,1.08-.45,0-.85-.15-1.02-.48l.41-.16c.1.2.34.3.61.3.44,0,.68-.28.68-.76v-.16c-.19.24-.48.37-.79.37-.49,0-.98-.39-.98-1.04v-.24c0-.64.49-1.04.98-1.04.32,0,.61.14.8.39l.02-.33ZM140.53,549.21v-.22c0-.43-.31-.69-.68-.69s-.69.26-.69.69v.22c0,.43.31.69.69.69s.68-.26.68-.69Z"/>
      <path class="cls-10" d="M142.45,549.05v-.59c0-.9.63-1.41,1.39-1.41.67,0,1.14.39,1.3,1.04l-.39.11c-.13-.5-.43-.77-.92-.77-.54,0-.98.36-.98,1.06v.54c0,.7.44,1.06.98,1.06.49,0,.79-.27.92-.77l.39.11c-.16.65-.63,1.04-1.3,1.04-.76,0-1.39-.52-1.39-1.41Z"/>
      <path class="cls-10" d="M145.55,549.37v-.33c0-.72.52-1.09,1.1-1.09s1.1.38,1.1,1.09v.33c0,.72-.52,1.09-1.1,1.09s-1.1-.37-1.1-1.09ZM147.34,549.35v-.3c0-.48-.32-.73-.69-.73s-.69.25-.69.73v.3c0,.48.32.73.69.73s.69-.25.69-.73Z"/>
      <path class="cls-10" d="M151.58,548.94v1.46h-.41v-1.45c0-.42-.2-.63-.51-.63s-.53.24-.53.63v1.44h-.4v-1.45c0-.42-.2-.63-.51-.63s-.53.22-.53.64v1.44h-.41v-2.39h.38l.02.32c.13-.22.35-.38.65-.38.33,0,.57.17.7.47.13-.28.4-.47.74-.47.48,0,.81.39.81,1Z"/>
      <path class="cls-10" d="M155.45,548.94v1.46h-.41v-1.45c0-.42-.2-.63-.51-.63s-.53.24-.53.63v1.44h-.4v-1.45c0-.42-.2-.63-.51-.63s-.53.22-.53.64v1.44h-.41v-2.39h.38l.02.32c.13-.22.35-.38.65-.38.33,0,.57.17.7.47.13-.28.4-.47.74-.47.48,0,.81.39.81,1Z"/>
      <path class="cls-10" d="M156.02,547.3c0-.15.11-.26.26-.26s.26.12.26.26-.11.26-.26.26-.26-.12-.26-.26ZM156.08,550.4v-2.39h.41v2.39h-.41Z"/>
      <path class="cls-10" d="M158.51,550.34c-.15.09-.34.12-.5.12-.37,0-.61-.2-.61-.61v-1.47h-.43v-.37h.43v-.66h.41v.66h.62v.37h-.62v1.42c0,.23.1.28.26.28.13,0,.23-.03.35-.09l.1.34Z"/>
      <path class="cls-10" d="M160.23,550.34c-.15.09-.34.12-.5.12-.37,0-.61-.2-.61-.61v-1.47h-.43v-.37h.43v-.66h.41v.66h.62v.37h-.62v1.42c0,.23.1.28.26.28.13,0,.23-.03.35-.09l.1.34Z"/>
      <path class="cls-10" d="M162.63,549.35h-1.76c0,.49.32.75.69.75.29,0,.55-.14.66-.42l.37.12c-.15.44-.57.66-1.04.66-.58,0-1.09-.38-1.09-1.12v-.27c0-.74.5-1.12,1.08-1.12s1.08.39,1.08,1.14v.26ZM162.23,549c0-.42-.29-.69-.68-.69-.35,0-.65.24-.68.69h1.35Z"/>
      <path class="cls-10" d="M165.22,549.35h-1.76c0,.49.32.75.69.75.29,0,.55-.14.66-.42l.37.12c-.15.44-.57.66-1.04.66-.58,0-1.09-.38-1.09-1.12v-.27c0-.74.5-1.12,1.08-1.12s1.08.39,1.08,1.14v.26ZM164.82,549c0-.42-.29-.69-.68-.69-.35,0-.65.24-.68.69h1.35Z"/>
      <path class="cls-10" d="M167.38,548.01h.62v.38h-.62v2.01h-.41v-2.01h-.43v-.38h.43v-.34c0-.44.25-.68.62-.68.15,0,.37.06.52.16l-.15.32c-.13-.07-.22-.11-.33-.11-.16,0-.26.09-.26.33v.32Z"/>
      <path class="cls-10" d="M168.26,549.37v-.33c0-.72.52-1.09,1.1-1.09s1.1.38,1.1,1.09v.33c0,.72-.52,1.09-1.1,1.09s-1.1-.37-1.1-1.09ZM170.05,549.35v-.3c0-.48-.32-.73-.69-.73s-.69.25-.69.73v.3c0,.48.32.73.69.73s.69-.25.69-.73Z"/>
      <path class="cls-10" d="M172.3,548l-.1.37c-.09-.03-.2-.04-.29-.04-.29,0-.52.26-.52.65v1.43h-.41v-2.39h.38l.02.36c.11-.25.32-.42.6-.42.11,0,.23.02.32.05Z"/>
      <path class="cls-10" d="M174.09,550.04h1.69v.36h-2.1v-3.3h2.06v.36h-1.65v1.05h1.57v.37h-1.57v1.16Z"/>
      <path class="cls-10" d="M176.03,550.4l.88-1.21-.85-1.18h.46l.61.86.61-.86h.47l-.85,1.18.88,1.21h-.47l-.64-.9-.64.9h-.47Z"/>
      <path class="cls-10" d="M180.75,549.07v.28c0,.71-.49,1.12-.98,1.12-.32,0-.61-.14-.79-.4v1.02h-.41v-3.08h.38l.02.35c.18-.26.48-.41.8-.41.49,0,.98.41.98,1.12ZM180.34,549.08c0-.5-.31-.76-.68-.76s-.68.26-.68.76v.26c0,.5.3.76.68.76s.68-.26.68-.76v-.26Z"/>
      <path class="cls-10" d="M181.24,550.4v-3.3h.41v3.3h-.41Z"/>
      <path class="cls-10" d="M182.18,549.37v-.33c0-.72.52-1.09,1.1-1.09s1.1.38,1.1,1.09v.33c0,.72-.52,1.09-1.1,1.09s-1.1-.37-1.1-1.09ZM183.97,549.35v-.3c0-.48-.32-.73-.69-.73s-.69.25-.69.73v.3c0,.48.32.73.69.73s.69-.25.69-.73Z"/>
      <path class="cls-10" d="M185.04,549.66c.18.31.46.45.75.45s.53-.11.53-.33-.18-.3-.43-.37l-.31-.09c-.37-.1-.7-.28-.7-.71s.37-.67.85-.67.77.22.97.53l-.31.22c-.16-.24-.39-.4-.68-.4s-.45.13-.45.32.14.29.39.36l.3.09c.37.1.75.27.75.72s-.44.68-.93.68-.86-.2-1.07-.59l.32-.21Z"/>
      <path class="cls-10" d="M187.23,547.3c0-.15.11-.26.26-.26s.26.12.26.26-.11.26-.26.26-.26-.12-.26-.26ZM187.29,550.4v-2.39h.41v2.39h-.41Z"/>
      <path class="cls-10" d="M188.22,549.37v-.33c0-.72.52-1.09,1.1-1.09s1.1.38,1.1,1.09v.33c0,.72-.52,1.09-1.1,1.09s-1.1-.37-1.1-1.09ZM190.01,549.35v-.3c0-.48-.32-.73-.69-.73s-.69.25-.69.73v.3c0,.48.32.73.69.73s.69-.25.69-.73Z"/>
      <path class="cls-10" d="M193.01,548.94v1.46h-.41v-1.44c0-.42-.22-.64-.6-.64s-.64.26-.64.63v1.44h-.41v-2.39h.38l.02.35c.15-.24.42-.41.76-.41.53,0,.9.39.9,1Z"/>
      <path class="cls-10" d="M196.72,549.07v.28c0,.71-.49,1.12-.98,1.12-.32,0-.61-.14-.79-.4v1.02h-.41v-3.08h.38l.02.35c.18-.26.48-.41.8-.41.49,0,.98.41.98,1.12ZM196.31,549.08c0-.5-.31-.76-.68-.76s-.68.26-.68.76v.26c0,.5.3.76.68.76s.68-.26.68-.76v-.26Z"/>
      <path class="cls-10" d="M198.52,548l-.1.37c-.09-.03-.2-.04-.29-.04-.29,0-.52.26-.52.65v1.43h-.41v-2.39h.38l.02.36c.11-.25.32-.42.6-.42.11,0,.23.02.32.05Z"/>
      <path class="cls-10" d="M198.68,549.37v-.33c0-.72.52-1.09,1.1-1.09s1.1.38,1.1,1.09v.33c0,.72-.52,1.09-1.1,1.09s-1.1-.37-1.1-1.09ZM200.47,549.35v-.3c0-.48-.32-.73-.69-.73s-.69.25-.69.73v.3c0,.48.32.73.69.73s.69-.25.69-.73Z"/>
      <path class="cls-10" d="M202.71,550.34c-.15.09-.34.12-.5.12-.37,0-.61-.2-.61-.61v-1.47h-.43v-.37h.43v-.66h.41v.66h.62v.37h-.62v1.42c0,.23.1.28.26.28.13,0,.23-.03.35-.09l.1.34Z"/>
      <path class="cls-10" d="M205.11,549.35h-1.76c0,.49.32.75.69.75.29,0,.55-.14.66-.42l.37.12c-.15.44-.57.66-1.04.66-.58,0-1.09-.38-1.09-1.12v-.27c0-.74.5-1.12,1.08-1.12s1.08.39,1.08,1.14v.26ZM204.71,549c0-.42-.29-.69-.68-.69-.35,0-.65.24-.68.69h1.35Z"/>
      <path class="cls-10" d="M205.54,549.37v-.33c0-.72.52-1.09,1.1-1.09.44,0,.84.23,1,.66l-.38.15c-.11-.28-.35-.43-.63-.43-.37,0-.69.25-.69.73v.3c0,.48.32.73.69.73.28,0,.51-.14.63-.43l.38.15c-.16.44-.56.66-1,.66-.58,0-1.1-.37-1.1-1.09Z"/>
      <path class="cls-10" d="M209.45,550.34c-.15.09-.34.12-.5.12-.37,0-.61-.2-.61-.61v-1.47h-.43v-.37h.43v-.66h.41v.66h.62v.37h-.62v1.42c0,.23.1.28.26.28.13,0,.23-.03.35-.09l.1.34Z"/>
      <path class="cls-10" d="M209.84,547.3c0-.15.11-.26.26-.26s.26.12.26.26-.11.26-.26.26-.26-.12-.26-.26ZM209.89,550.4v-2.39h.41v2.39h-.41Z"/>
      <path class="cls-10" d="M210.83,549.37v-.33c0-.72.52-1.09,1.1-1.09s1.1.38,1.1,1.09v.33c0,.72-.52,1.09-1.1,1.09s-1.1-.37-1.1-1.09ZM212.62,549.35v-.3c0-.48-.32-.73-.69-.73s-.69.25-.69.73v.3c0,.48.32.73.69.73s.69-.25.69-.73Z"/>
      <path class="cls-10" d="M215.62,548.94v1.46h-.41v-1.44c0-.42-.22-.64-.6-.64s-.64.26-.64.63v1.44h-.41v-2.39h.38l.02.35c.15-.24.42-.41.76-.41.53,0,.9.39.9,1Z"/>
    </g>
  </g>
  <g>
    <polygon class="cls-11" points="196.97 514.56 193.74 510.51 196.92 506.52 193.16 506.52 191.86 508.15 190.57 506.52 186.81 506.52 189.98 510.51 186.75 514.56 190.51 514.56 191.86 512.87 193.21 514.56 196.97 514.56"/>
    <path class="cls-11" d="M174.11,514.55h-3.66c-3.59,0-6.51-2.92-6.51-6.51s2.92-6.51,6.51-6.51h3.66v3.2h-3.66c-1.83,0-3.31,1.49-3.31,3.31s1.49,3.31,3.31,3.31h3.66v3.2Z"/>
    <path class="cls-11" d="M175.38,509.08v.1c0,2.96,2.46,5.38,5.49,5.38h4.67v-3.05h-4.67c-1.29,0-2.35-.96-2.43-2.17h6.43v-2.82h-6.44v-1.93h7.11v-3.05h-10.17v7.55Z"/>
    <path class="cls-11" d="M152.65,509.08v.1c0,2.96,2.46,5.38,5.49,5.38h4.67v-3.05h-4.67c-1.29,0-2.35-.96-2.43-2.17h6.43v-2.82h-6.44v-1.93h7.11v-3.05h-10.17v7.55Z"/>
    <g>
      <g>
        <rect class="cls-11" x="140.99" y="501.52" width="2.98" height="13.05"/>
        <polygon class="cls-11" points="147.63 507.3 151.39 501.52 147.78 501.52 144.01 507.35 147.78 514.58 151.39 514.58 147.63 507.3 147.63 507.3"/>
      </g>
      <g>
        <path class="cls-11" d="M133.48,512.65c-2.44-1.59-3.89-4.27-3.89-7.17,0-4.72,3.84-8.55,8.55-8.55.66,0,1.32.08,1.96.23l-.28,1.21c-.55-.13-1.11-.19-1.68-.19-4.03,0-7.31,3.28-7.31,7.31,0,2.48,1.24,4.77,3.33,6.13l-.68,1.04Z"/>
        <path class="cls-11" d="M131.32,515.98c-3.57-2.32-5.7-6.25-5.7-10.5,0-6.9,5.62-12.52,12.52-12.52.97,0,1.94.11,2.87.33,2.03.48,3.92,1.47,5.48,2.86l-.83.93c-1.4-1.26-3.11-2.15-4.94-2.58-.84-.2-1.71-.3-2.59-.3-6.22,0-11.27,5.06-11.27,11.27,0,3.83,1.92,7.36,5.13,9.46l-.68,1.04Z"/>
        <path class="cls-11" d="M138,522.22c-3.25,0-6.41-.93-9.12-2.7-4.77-3.11-7.62-8.35-7.62-14.04,0-9.23,7.51-16.74,16.74-16.74v1.24c-8.54,0-15.49,6.95-15.49,15.49,0,5.26,2.64,10.12,7.05,12.99,2.51,1.63,5.43,2.5,8.44,2.5,4.45,0,8.69-1.92,11.63-5.26l.93.82c-3.18,3.61-7.76,5.68-12.56,5.68Z"/>
      </g>
    </g>
  </g>
  <text class="cls-4" transform="translate(172.7 704.28)"><tspan x="0" y="0">전용색상은 방폭산업·기술 분야의 전문성, 신뢰, 혁신을 나타냈습니다.</tspan></text>
  <text class="cls-9" transform="translate(214.71 751.97)"><tspan x="0" y="0">KECEx Blue</tspan></text>
  <text class="cls-3" transform="translate(215.12 766.17)"><tspan x="0" y="0">C 100 M 85</tspan><tspan class="cls-12" x="48.29" y="0"> </tspan><tspan x="49.61" y="0">Y 0 K 0</tspan></text>
  <g>
    <rect class="cls-11" x="73.43" y="730.64" width="132.4" height="48.6"/>
    <text class="cls-6" transform="translate(163.23 773.43)"><tspan x="0" y="0">#003894</tspan></text>
  </g>
  <text class="cls-8" transform="translate(453.06 751.22)"><tspan x="0" y="0">KECEx Black</tspan></text>
  <text class="cls-3" transform="translate(453.46 765.43)"><tspan x="0" y="0">C 0 M 0</tspan><tspan class="cls-12" x="32.29" y="0"> </tspan><tspan class="cls-5" x="33.6" y="0">Y 0 K 90</tspan></text>
  <g>
    <rect class="cls-10" x="311.78" y="730.64" width="132.4" height="48.6"/>
    <text class="cls-6" transform="translate(401.57 771.88)"><tspan x="0" y="0">#3E3A39</tspan></text>
  </g>
  <text class="cls-7" transform="translate(271.95 668.5)"><tspan x="0" y="0">전용색상</tspan></text>
  <line class="cls-2" x1="290.36" y1="646.66" x2="304.92" y2="646.66"/>
</svg>